<svg xmlns="http://www.w3.org/2000/svg" xmlns:xlink="http://www.w3.org/1999/xlink" viewBox="0 0 552.13 293.91"><defs><style>.cls-1{fill:none;}.cls-2{isolation:isolate;}.cls-3,.cls-46,.cls-47{mix-blend-mode:lighten;}.cls-25,.cls-26,.cls-4{fill:#42e8e0;}.cls-5{fill:url(#Áåçûìÿííûé_ãðàäèåíò_24);}.cls-6{fill:url(#Áåçûìÿííûé_ãðàäèåíò_3);}.cls-7{fill:#fff;}.cls-8{fill:#2842a2;}.cls-9{fill:#adb1f2;}.cls-10{fill:#9198db;}.cls-11{fill:#24126a;}.cls-12{fill:url(#Áåçûìÿííûé_ãðàäèåíò_3-2);}.cls-13{fill:url(#Áåçûìÿííûé_ãðàäèåíò_3-3);}.cls-14{fill:url(#Áåçûìÿííûé_ãðàäèåíò_24-2);}.cls-15,.cls-24{fill:#453c9e;}.cls-16{fill:url(#Áåçûìÿííûé_ãðàäèåíò_24-3);}.cls-17{fill:url(#Áåçûìÿííûé_ãðàäèåíò_3-4);}.cls-18{fill:url(#Áåçûìÿííûé_ãðàäèåíò_3-5);}.cls-19{fill:url(#Áåçûìÿííûé_ãðàäèåíò_3-6);}.cls-20{fill:url(#Áåçûìÿííûé_ãðàäèåíò_24-4);}.cls-21{fill:#bcbeff;}.cls-22{fill:url(#Áåçûìÿííûé_ãðàäèåíò_3-7);}.cls-23,.cls-24{opacity:0.51;}.cls-25{opacity:0.1;}.cls-26{opacity:0.4;}.cls-27{fill:url(#Áåçûìÿííûé_ãðàäèåíò_3-8);}.cls-28{fill:url(#Áåçûìÿííûé_ãðàäèåíò_3-9);}.cls-29{fill:url(#Áåçûìÿííûé_ãðàäèåíò_24-5);}.cls-30{fill:url(#Áåçûìÿííûé_ãðàäèåíò_24-6);}.cls-31{fill:url(#Áåçûìÿííûé_ãðàäèåíò_3-10);}.cls-32{fill:url(#Áåçûìÿííûé_ãðàäèåíò_3-11);}.cls-33{opacity:0.11;}.cls-34{clip-path:url(#clip-path);}.cls-35{fill:url(#Áåçûìÿííûé_ãðàäèåíò_3-12);}.cls-36{fill:url(#Áåçûìÿííûé_ãðàäèåíò_3-13);}.cls-37{fill:#5761d7;}.cls-38{fill:url(#Áåçûìÿííûé_ãðàäèåíò_3-14);}.cls-39{fill:url(#Áåçûìÿííûé_ãðàäèåíò_24-7);}.cls-40{fill:url(#Áåçûìÿííûé_ãðàäèåíò_24-8);}.cls-41{fill:url(#Áåçûìÿííûé_ãðàäèåíò_3-15);}.cls-42{fill:url(#Áåçûìÿííûé_ãðàäèåíò_3-16);}.cls-43{clip-path:url(#clip-path-2);}.cls-44{fill:url(#Áåçûìÿííûé_ãðàäèåíò_3-17);}.cls-45{fill:url(#Áåçûìÿííûé_ãðàäèåíò_3-18);}.cls-46,.cls-47{opacity:0.5;}.cls-46{fill:url(#Áåçûìÿííûé_ãðàäèåíò_22);}.cls-47{fill:url(#Áåçûìÿííûé_ãðàäèåíò_22-2);}</style><linearGradient id="Áåçûìÿííûé_ãðàäèåíò_24" x1="2861.28" y1="161.86" x2="3007.84" y2="161.86" gradientTransform="translate(-2743.73)" gradientUnits="userSpaceOnUse"><stop offset="0" stop-color="#5761d7"/><stop offset="0.18" stop-color="#5c66d9"/><stop offset="0.39" stop-color="#6a73df"/><stop offset="0.61" stop-color="#8289e8"/><stop offset="0.85" stop-color="#a3a7f5"/><stop offset="1" stop-color="#bcbeff"/></linearGradient><linearGradient id="Áåçûìÿííûé_ãðàäèåíò_3" x1="2910.52" y1="156.97" x2="3057.16" y2="156.97" gradientTransform="translate(-2743.73)" gradientUnits="userSpaceOnUse"><stop offset="0" stop-color="#c0bff6"/><stop offset="0.29" stop-color="#c5c4f7"/><stop offset="0.64" stop-color="#d3d2f9"/><stop offset="1" stop-color="#e9e9fd"/></linearGradient><linearGradient id="Áåçûìÿííûé_ãðàäèåíò_3-2" x1="2901.01" y1="145.69" x2="2938.54" y2="145.69" xlink:href="#Áåçûìÿííûé_ãðàäèåíò_3"/><linearGradient id="Áåçûìÿííûé_ãðàäèåíò_3-3" x1="2903.94" y1="138.93" x2="3007.71" y2="138.93" xlink:href="#Áåçûìÿííûé_ãðàäèåíò_3"/><linearGradient id="Áåçûìÿííûé_ãðàäèåíò_24-2" x1="2903.94" y1="165.54" x2="2921.76" y2="165.54" xlink:href="#Áåçûìÿííûé_ãðàäèåíò_24"/><linearGradient id="Áåçûìÿííûé_ãðàäèåíò_24-3" x1="268.95" y1="161.86" x2="415.51" y2="161.86" gradientTransform="matrix(-1, 0, 0, 1, 751.4, 0)" xlink:href="#Áåçûìÿííûé_ãðàäèåíò_24"/><linearGradient id="Áåçûìÿííûé_ãðàäèåíò_3-4" x1="318.2" y1="156.97" x2="464.84" y2="156.97" gradientTransform="matrix(-1, 0, 0, 1, 751.4, 0)" xlink:href="#Áåçûìÿííûé_ãðàäèåíò_3"/><linearGradient id="Áåçûìÿííûé_ãðàäèåíò_3-5" x1="308.68" y1="145.69" x2="346.22" y2="145.69" gradientTransform="matrix(-1, 0, 0, 1, 751.4, 0)" xlink:href="#Áåçûìÿííûé_ãðàäèåíò_3"/><linearGradient id="Áåçûìÿííûé_ãðàäèåíò_3-6" x1="311.62" y1="138.93" x2="415.39" y2="138.93" gradientTransform="matrix(-1, 0, 0, 1, 751.4, 0)" xlink:href="#Áåçûìÿííûé_ãðàäèåíò_3"/><linearGradient id="Áåçûìÿííûé_ãðàäèåíò_24-4" x1="311.62" y1="165.54" x2="329.44" y2="165.54" gradientTransform="matrix(-1, 0, 0, 1, 751.4, 0)" xlink:href="#Áåçûìÿííûé_ãðàäèåíò_24"/><linearGradient id="Áåçûìÿííûé_ãðàäèåíò_3-7" x1="317.89" y1="160.66" x2="317.89" y2="103.5" gradientTransform="matrix(1, 0, 0, 1, 0, 0)" xlink:href="#Áåçûìÿííûé_ãðàäèåíò_3"/><linearGradient id="Áåçûìÿííûé_ãðàäèåíò_3-8" x1="317.89" y1="113.26" x2="317.89" y2="56.1" gradientTransform="matrix(1, 0, 0, 1, 0, 0)" xlink:href="#Áåçûìÿííûé_ãðàäèåíò_3"/><linearGradient id="Áåçûìÿííûé_ãðàäèåíò_3-9" x1="2597.83" y1="219.48" x2="2703.43" y2="219.48" gradientTransform="translate(-2278.69)" xlink:href="#Áåçûìÿííûé_ãðàäèåíò_3"/><linearGradient id="Áåçûìÿííûé_ãðàäèåíò_24-5" x1="2597.83" y1="246.57" x2="2615.96" y2="246.57" gradientTransform="translate(-2278.69)" xlink:href="#Áåçûìÿííûé_ãðàäèåíò_24"/><linearGradient id="Áåçûìÿííûé_ãðàäèåíò_24-6" x1="2611.97" y1="277.01" x2="2761.13" y2="277.01" gradientTransform="translate(-2278.69)" xlink:href="#Áåçûìÿííûé_ãðàäèåíò_24"/><linearGradient id="Áåçûìÿííûé_ãðàäèåíò_3-10" x1="2662.09" y1="272.04" x2="2811.32" y2="272.04" gradientTransform="translate(-2278.69)" xlink:href="#Áåçûìÿííûé_ãðàäèåíò_3"/><linearGradient id="Áåçûìÿííûé_ãðàäèåíò_3-11" x1="2687.36" y1="280.51" x2="2725.56" y2="280.51" gradientTransform="translate(-2278.69)" xlink:href="#Áåçûìÿííûé_ãðàäèåíò_3"/><clipPath id="clip-path" transform="translate(-23.94 -77.42)"><polygon id="SVGID" class="cls-1" points="412 162.28 323.88 213.15 334.81 277.57 422.87 226.73 412 162.28"/></clipPath><linearGradient id="Áåçûìÿííûé_ãðàäèåíò_3-12" x1="2605.07" y1="238.96" x2="2754.31" y2="238.96" gradientTransform="translate(-2278.69)" xlink:href="#Áåçûìÿííûé_ãðàäèåíò_3"/><linearGradient id="Áåçûìÿííûé_ãðàäèåíò_3-13" x1="2595.25" y1="228.01" x2="2633.45" y2="228.01" gradientTransform="translate(-2278.69)" xlink:href="#Áåçûìÿííûé_ãðàäèåíò_3"/><linearGradient id="Áåçûìÿííûé_ãðàäèåíò_3-14" x1="5.5" y1="219.48" x2="111.11" y2="219.48" gradientTransform="matrix(-1, 0, 0, 1, 286.37, 0)" xlink:href="#Áåçûìÿííûé_ãðàäèåíò_3"/><linearGradient id="Áåçûìÿííûé_ãðàäèåíò_24-7" x1="5.5" y1="246.57" x2="23.64" y2="246.57" gradientTransform="matrix(-1, 0, 0, 1, 286.37, 0)" xlink:href="#Áåçûìÿííûé_ãðàäèåíò_24"/><linearGradient id="Áåçûìÿííûé_ãðàäèåíò_24-8" x1="19.65" y1="277.01" x2="168.8" y2="277.01" gradientTransform="matrix(-1, 0, 0, 1, 286.37, 0)" xlink:href="#Áåçûìÿííûé_ãðàäèåíò_24"/><linearGradient id="Áåçûìÿííûé_ãðàäèåíò_3-15" x1="69.77" y1="272.04" x2="219" y2="272.04" gradientTransform="matrix(-1, 0, 0, 1, 286.37, 0)" xlink:href="#Áåçûìÿííûé_ãðàäèåíò_3"/><linearGradient id="Áåçûìÿííûé_ãðàäèåíò_3-16" x1="95.04" y1="280.51" x2="133.24" y2="280.51" gradientTransform="matrix(-1, 0, 0, 1, 286.37, 0)" xlink:href="#Áåçûìÿííûé_ãðàäèåíò_3"/><clipPath id="clip-path-2" transform="translate(-23.94 -77.42)"><polygon id="SVGID-2" data-name="SVGID" class="cls-1" points="188 162.28 276.12 213.15 265.19 277.57 177.13 226.73 188 162.28"/></clipPath><linearGradient id="Áåçûìÿííûé_ãðàäèåíò_3-17" x1="12.75" y1="238.96" x2="161.98" y2="238.96" gradientTransform="matrix(-1, 0, 0, 1, 286.37, 0)" xlink:href="#Áåçûìÿííûé_ãðàäèåíò_3"/><linearGradient id="Áåçûìÿííûé_ãðàäèåíò_3-18" x1="2.93" y1="228.01" x2="41.13" y2="228.01" gradientTransform="matrix(-1, 0, 0, 1, 286.37, 0)" xlink:href="#Áåçûìÿííûé_ãðàäèåíò_3"/><linearGradient id="Áåçûìÿííûé_ãðàäèåíò_22" x1="218.92" y1="113.43" x2="71.23" y2="229.94" gradientUnits="userSpaceOnUse"><stop offset="0" stop-color="#42e8e0"/><stop offset="0.12" stop-color="#39bdc0"/><stop offset="0.28" stop-color="#2f899a"/><stop offset="0.45" stop-color="#265f7b"/><stop offset="0.6" stop-color="#1f3d62"/><stop offset="0.75" stop-color="#1a2550"/><stop offset="0.88" stop-color="#171746"/><stop offset="1" stop-color="#161242"/></linearGradient><linearGradient id="Áåçûìÿííûé_ãðàäèåíò_22-2" x1="-2067.05" y1="190.86" x2="-2214.74" y2="307.37" gradientTransform="matrix(-1, 0, 0, 1, -1733.84, -77.42)" xlink:href="#Áåçûìÿííûé_ãðàäèåíò_22"/></defs><title>index-banner-4</title><g class="cls-2"><g id="Ñëîé_1" data-name="Ñëîé 1"><g class="cls-3"><path class="cls-4" d="M173.32,211.53a8.12,8.12,0,0,1-4.06-1.09l-46.7-27a2.35,2.35,0,0,1,0-4.07l84.5-48.78a.44.44,0,0,1,.47,0l.39.22,50.13,29a2.35,2.35,0,0,1,0,4.06l-80.68,46.58A8.12,8.12,0,0,1,173.32,211.53Zm34-79.95L123,180.23a1.4,1.4,0,0,0,0,2.44l46.7,27a7.32,7.32,0,0,0,7.17,0l80.68-46.58a1.4,1.4,0,0,0,0-2.44Z" transform="translate(-23.94 -77.42)"/></g><path class="cls-5" d="M264.11,146.7l-4.9,2.56-49.16-28.38a3.55,3.55,0,0,0-3.21.13l-84.78,49c-.81-.45-4.51-2.23-4.51-2.23l1.79,4.67h0a1,1,0,0,0,.5.55l51.77,29.89a3.55,3.55,0,0,0,3.21-.13l86.76-50.09a1.56,1.56,0,0,0,.73-.77h0Z" transform="translate(-23.94 -77.42)"/><path class="cls-6" d="M263.35,147.5l-88.92,51.34a3.67,3.67,0,0,1-3.28.14l-53.06-30.64c-.85-.48-.74-1.33.23-1.9l88.92-51.33a3.69,3.69,0,0,1,3.29-.14l53.06,30.64C264.43,146.09,264.32,146.94,263.35,147.5Z" transform="translate(-23.94 -77.42)"/><path class="cls-7" d="M263.35,147l-88.92,51.34a3.63,3.63,0,0,1-3.28.13l-53.06-30.63a1.12,1.12,0,0,1-.52-.57.89.89,0,0,0,.52,1.08L171.15,199a3.67,3.67,0,0,0,3.28-.14l88.92-51.34c.65-.37.91-.88.75-1.32A1.55,1.55,0,0,1,263.35,147Z" transform="translate(-23.94 -77.42)"/><path class="cls-8" d="M147.61,187.74v-1c0-.09.06-.13.13-.09l3.44,2a.3.3,0,0,1,.12.24v1c0,.09-.05.13-.12.09l-3.44-2A.31.31,0,0,1,147.61,187.74Z" transform="translate(-23.94 -77.42)"/><path class="cls-8" d="M152.76,190.71v-1c0-.09.05-.13.12-.09l3.44,2a.31.31,0,0,1,.13.24v1c0,.09-.06.13-.13.09l-3.44-2A.31.31,0,0,1,152.76,190.71Z" transform="translate(-23.94 -77.42)"/><path class="cls-9" d="M148,175.31l73.89-42.66a1.56,1.56,0,0,1,1.59,0l26.31,15.22a.56.56,0,0,1,0,1l-73.85,42.64a1.56,1.56,0,0,1-1.59,0L148,176.29A.56.56,0,0,1,148,175.31Z" transform="translate(-23.94 -77.42)"/><path class="cls-10" d="M148,176.29l.26.15,73.63-42.51a1.59,1.59,0,0,1,1.59,0L249.53,149l.26-.16a.56.56,0,0,0,0-1l-26.31-15.22a1.56,1.56,0,0,0-1.59,0L148,175.31A.56.56,0,0,0,148,176.29Z" transform="translate(-23.94 -77.42)"/><polygon class="cls-11" points="201.53 59.08 133.47 98.37 130.09 97.03 198.68 57.43 201.53 59.08"/><polygon class="cls-11" points="208.53 63.12 148.33 97.88 145.47 96.23 205.67 61.47 208.53 63.12"/><polygon class="cls-11" points="213.08 65.75 142.2 106.67 139.35 105.03 210.23 64.1 213.08 65.75"/><polygon class="cls-11" points="217.64 68.38 146.76 109.3 143.91 107.66 214.79 66.73 217.64 68.38"/><polygon class="cls-11" points="222.2 71.01 151.32 111.93 148.46 110.29 219.34 69.36 222.2 71.01"/><polygon class="cls-11" points="133.47 98.37 130.62 100.02 127.76 98.37 130.62 96.73 133.47 98.37"/><polygon class="cls-11" points="151.79 95.88 137.61 104.06 134.76 102.41 149.04 94.17 151.79 95.88"/><path class="cls-12" d="M174.31,156.19l19.92-11.5a.86.86,0,0,0,0-1.63l-13.63-7.87a3.09,3.09,0,0,0-2.81,0L157.86,146.7a.85.85,0,0,0,0,1.62l13.63,7.87A3.11,3.11,0,0,0,174.31,156.19Z" transform="translate(-23.94 -77.42)"/><path class="cls-10" d="M157.86,147.36l19.93-11.5a3.09,3.09,0,0,1,2.81,0l13.63,7.86a1.21,1.21,0,0,1,.49.49c.2-.4.05-.84-.49-1.15l-13.63-7.87a3.09,3.09,0,0,0-2.81,0L157.86,146.7c-.54.31-.69.75-.49,1.14A1.25,1.25,0,0,1,157.86,147.36Z" transform="translate(-23.94 -77.42)"/><path class="cls-13" d="M264,145.38,252.73,78.7l.9-.39-1.36-.77h0a1,1,0,0,0-1,.08L161.4,129.48a2.54,2.54,0,0,0-1.17,2.28L171.56,199a.83.83,0,0,0,.47.68h0l1.33.77.23-1.24-.08,0,89.29-51.55A2.53,2.53,0,0,0,264,145.38Z" transform="translate(-23.94 -77.42)"/><path class="cls-14" d="M161.9,131.3l-1.48-.65a2.06,2.06,0,0,0-.19,1.11L171.56,199a.83.83,0,0,0,.47.68h0l1.33.77.23-1.24-.08,0L178,196.6Z" transform="translate(-23.94 -77.42)"/><path class="cls-15" d="M264.21,148.47l-89.83,51.86c-.69.4-1.29.17-1.41-.54l-11.33-67.22a2.53,2.53,0,0,1,1.17-2.28l89.83-51.87c.69-.4,1.28-.16,1.41.55l11.33,67.22A2.54,2.54,0,0,1,264.21,148.47Z" transform="translate(-23.94 -77.42)"/><g class="cls-3"><path class="cls-4" d="M426.68,211.53a8.12,8.12,0,0,1-4.05-1.09h0L342,163.86a2.35,2.35,0,0,1,0-4.06l50.52-29.17a.44.44,0,0,1,.47,0l84.5,48.78a2.35,2.35,0,0,1,0,4.07l-46.7,27A8.12,8.12,0,0,1,426.68,211.53Zm-3.58-1.9a7.32,7.32,0,0,0,7.17,0l46.7-27a1.4,1.4,0,0,0,0-2.44l-84.26-48.65-.16.09-50.13,28.94a1.4,1.4,0,0,0,0,2.44Z" transform="translate(-23.94 -77.42)"/></g><path class="cls-16" d="M335.89,146.7l4.9,2.56L390,120.88a3.55,3.55,0,0,1,3.21.13l84.78,49c.81-.45,4.51-2.23,4.51-2.23l-1.79,4.67h0a1,1,0,0,1-.5.55l-51.77,29.89a3.55,3.55,0,0,1-3.21-.13l-86.76-50.09a1.56,1.56,0,0,1-.73-.77h0Z" transform="translate(-23.94 -77.42)"/><path class="cls-17" d="M336.65,147.5l88.92,51.34a3.67,3.67,0,0,0,3.28.14l53.06-30.64c.85-.48.74-1.33-.23-1.9l-88.92-51.33a3.69,3.69,0,0,0-3.29-.14l-53.06,30.64C335.57,146.09,335.68,146.94,336.65,147.5Z" transform="translate(-23.94 -77.42)"/><path class="cls-7" d="M336.65,147l88.92,51.34a3.63,3.63,0,0,0,3.28.13l53.06-30.63a1.12,1.12,0,0,0,.52-.57.89.89,0,0,1-.52,1.08L428.85,199a3.67,3.67,0,0,1-3.28-.14L336.65,147.5c-.65-.37-.91-.88-.75-1.32A1.55,1.55,0,0,0,336.65,147Z" transform="translate(-23.94 -77.42)"/><path class="cls-8" d="M452.39,187.74v-1c0-.09-.06-.13-.13-.09l-3.44,2a.3.3,0,0,0-.12.24v1c0,.09.05.13.12.09l3.44-2A.31.31,0,0,0,452.39,187.74Z" transform="translate(-23.94 -77.42)"/><path class="cls-8" d="M447.24,190.71v-1c0-.09-.05-.13-.12-.09l-3.44,2a.31.31,0,0,0-.13.24v1c0,.09.06.13.13.09l3.44-2A.31.31,0,0,0,447.24,190.71Z" transform="translate(-23.94 -77.42)"/><path class="cls-9" d="M452,175.31l-73.89-42.66a1.56,1.56,0,0,0-1.59,0l-26.31,15.22a.56.56,0,0,0,0,1l73.85,42.64a1.56,1.56,0,0,0,1.59,0L452,176.29A.56.56,0,0,0,452,175.31Z" transform="translate(-23.94 -77.42)"/><path class="cls-10" d="M452,176.29l-.26.15-73.63-42.51a1.59,1.59,0,0,0-1.59,0l-26,15.07-.26-.16a.56.56,0,0,1,0-1l26.31-15.22a1.56,1.56,0,0,1,1.59,0L452,175.31A.56.56,0,0,1,452,176.29Z" transform="translate(-23.94 -77.42)"/><polygon class="cls-11" points="350.6 59.08 418.66 98.37 422.03 97.03 353.45 57.43 350.6 59.08"/><polygon class="cls-11" points="343.6 63.12 403.8 97.88 406.66 96.23 346.45 61.47 343.6 63.12"/><polygon class="cls-11" points="339.04 65.75 409.92 106.67 412.78 105.03 341.9 64.1 339.04 65.75"/><polygon class="cls-11" points="334.49 68.38 405.37 109.3 408.22 107.66 337.34 66.73 334.49 68.38"/><polygon class="cls-11" points="329.93 71.01 400.81 111.93 403.66 110.29 332.78 69.36 329.93 71.01"/><polygon class="cls-11" points="418.66 98.37 421.51 100.02 424.37 98.37 421.51 96.73 418.66 98.37"/><polygon class="cls-11" points="400.34 95.88 414.52 104.06 417.37 102.41 403.09 94.17 400.34 95.88"/><path class="cls-18" d="M425.69,156.19l-19.92-11.5a.86.86,0,0,1,0-1.63l13.63-7.87a3.09,3.09,0,0,1,2.81,0l19.93,11.51a.85.85,0,0,1,0,1.62l-13.63,7.87A3.11,3.11,0,0,1,425.69,156.19Z" transform="translate(-23.94 -77.42)"/><path class="cls-10" d="M442.14,147.36l-19.93-11.5a3.09,3.09,0,0,0-2.81,0l-13.63,7.86a1.21,1.21,0,0,0-.49.49c-.2-.4,0-.84.49-1.15l13.63-7.87a3.09,3.09,0,0,1,2.81,0l19.93,11.51c.54.31.69.75.49,1.14A1.25,1.25,0,0,0,442.14,147.36Z" transform="translate(-23.94 -77.42)"/><path class="cls-19" d="M336,145.38,347.27,78.7l-.9-.39,1.36-.77h0a1,1,0,0,1,1,.08l89.83,51.86a2.54,2.54,0,0,1,1.17,2.28L428.44,199a.83.83,0,0,1-.47.68h0l-1.33.77-.23-1.24.08,0L337.2,147.66A2.53,2.53,0,0,1,336,145.38Z" transform="translate(-23.94 -77.42)"/><path class="cls-20" d="M438.1,131.3l1.48-.65a2.06,2.06,0,0,1,.19,1.11L428.44,199a.83.83,0,0,1-.47.68h0l-1.33.77-.23-1.24.08,0L422,196.6Z" transform="translate(-23.94 -77.42)"/><path class="cls-15" d="M335.79,148.47l89.83,51.86c.69.4,1.29.17,1.41-.54l11.33-67.22a2.53,2.53,0,0,0-1.17-2.28L347.36,78.42c-.69-.4-1.28-.16-1.41.55l-11.33,67.22A2.54,2.54,0,0,0,335.79,148.47Z" transform="translate(-23.94 -77.42)"/><polygon class="cls-21" points="276.06 150.18 192.42 101.89 276.06 53.6 359.71 101.89 276.06 150.18"/><polygon class="cls-15" points="276.06 137 215.26 101.89 276.06 66.79 336.87 101.89 276.06 137"/><polygon class="cls-7" points="276.06 69.17 334.81 103.08 336.87 101.89 276.06 66.79 215.26 101.89 217.32 103.08 276.06 69.17"/><polygon class="cls-22" points="359.71 101.89 359.71 129.27 276.06 177.56 276.06 150.18 359.71 101.89"/><polygon class="cls-11" points="192.42 101.89 192.42 129.27 276.06 177.56 276.06 150.18 192.42 101.89"/><g class="cls-23"><polygon class="cls-15" points="198.09 114.19 198.09 122.81 270.4 164.56 270.4 155.94 198.09 114.19"/></g><polygon class="cls-7" points="276.06 148.62 193.78 101.11 192.42 101.89 276.06 150.19 359.71 101.89 358.35 101.11 276.06 148.62"/><polygon class="cls-15" points="347.16 121.08 347.16 125.98 288.61 159.78 288.61 154.88 347.16 121.08"/><polygon class="cls-24" points="192.42 101.89 192.42 129.27 276.06 177.56 276.06 150.18 192.42 101.89"/><polygon class="cls-4" points="251.65 148.73 236.5 139.99 236.5 141.79 251.65 150.54 251.65 148.73"/><polygon class="cls-4" points="234.32 138.74 230.21 136.37 230.21 138.18 234.32 140.55 234.32 138.74"/><polygon class="cls-4" points="215.09 127.65 206.7 122.8 206.69 124.6 215.09 129.45 215.09 127.65"/><polygon class="cls-4" points="222.75 132.07 216.68 128.56 216.68 130.37 222.75 133.88 222.75 132.07"/><polygon class="cls-4" points="228.45 135.36 224.34 132.99 224.34 134.79 228.45 137.16 228.45 135.36"/><polygon class="cls-4" points="276.15 78.84 273.49 77.31 276.15 75.78 278.81 77.31 276.15 78.84"/><polygon class="cls-25" points="281.46 81.91 278.81 80.38 281.46 78.84 284.12 80.38 281.46 81.91"/><polygon class="cls-26" points="286.77 84.98 284.12 83.44 286.77 81.91 289.43 83.44 286.77 84.98"/><polygon class="cls-4" points="292.09 88.04 289.43 86.51 292.09 84.98 294.74 86.51 292.09 88.04"/><polygon class="cls-26" points="297.4 91.11 294.74 89.58 297.4 88.04 300.05 89.58 297.4 91.11"/><polygon class="cls-4" points="302.71 94.18 300.05 92.64 302.71 91.11 305.37 92.64 302.71 94.18"/><polygon class="cls-4" points="308.02 97.24 305.37 95.71 308.02 94.18 310.68 95.71 308.02 97.24"/><polygon class="cls-4" points="313.33 100.31 310.68 98.78 313.33 97.24 315.99 98.78 313.33 100.31"/><polygon class="cls-25" points="318.65 103.38 315.99 101.84 318.65 100.31 321.3 101.84 318.65 103.38"/><polygon class="cls-4" points="270.82 81.92 268.16 80.39 270.82 78.86 273.47 80.39 270.82 81.92"/><polygon class="cls-4" points="276.13 84.99 273.47 83.45 276.13 81.92 278.78 83.45 276.13 84.99"/><polygon class="cls-4" points="281.44 88.06 278.78 86.52 281.44 84.99 284.1 86.52 281.44 88.06"/><polygon class="cls-4" points="286.75 91.12 284.1 89.59 286.75 88.06 289.41 89.59 286.75 91.12"/><polygon class="cls-4" points="292.06 94.19 289.41 92.66 292.06 91.12 294.72 92.66 292.06 94.19"/><polygon class="cls-4" points="297.38 97.26 294.72 95.72 297.38 94.19 300.03 95.72 297.38 97.26"/><polygon class="cls-4" points="302.69 100.32 300.03 98.79 302.69 97.26 305.34 98.79 302.69 100.32"/><polygon class="cls-4" points="308 103.39 305.34 101.86 308 100.32 310.66 101.86 308 103.39"/><polygon class="cls-4" points="313.31 106.46 310.66 104.92 313.31 103.39 315.97 104.92 313.31 106.46"/><polygon class="cls-4" points="265.48 85 262.83 83.47 265.48 81.93 268.14 83.47 265.48 85"/><polygon class="cls-4" points="270.8 88.07 268.14 86.53 270.8 85 273.45 86.53 270.8 88.07"/><polygon class="cls-4" points="276.11 91.14 273.45 89.6 276.11 88.07 278.76 89.6 276.11 91.14"/><polygon class="cls-25" points="281.42 94.2 278.76 92.67 281.42 91.14 284.07 92.67 281.42 94.2"/><polygon class="cls-26" points="286.73 97.27 284.07 95.73 286.73 94.2 289.39 95.73 286.73 97.27"/><polygon class="cls-26" points="292.04 100.33 289.39 98.8 292.04 97.27 294.7 98.8 292.04 100.33"/><polygon class="cls-4" points="297.36 103.4 294.7 101.87 297.36 100.34 300.01 101.87 297.36 103.4"/><polygon class="cls-4" points="302.67 106.47 300.01 104.94 302.67 103.4 305.32 104.94 302.67 106.47"/><polygon class="cls-4" points="307.98 109.54 305.32 108 307.98 106.47 310.63 108 307.98 109.54"/><polygon class="cls-26" points="260.15 88.08 257.49 86.55 260.15 85.01 262.81 86.55 260.15 88.08"/><polygon class="cls-26" points="265.46 91.15 262.81 89.61 265.46 88.08 268.12 89.61 265.46 91.15"/><polygon class="cls-25" points="270.77 94.21 268.12 92.68 270.77 91.15 273.43 92.68 270.77 94.21"/><polygon class="cls-4" points="276.08 97.28 273.43 95.75 276.08 94.21 278.74 95.75 276.08 97.28"/><polygon class="cls-4" points="281.4 100.35 278.74 98.81 281.4 97.28 284.05 98.81 281.4 100.35"/><polygon class="cls-4" points="286.71 103.42 284.05 101.88 286.71 100.35 289.37 101.88 286.71 103.42"/><polygon class="cls-26" points="292.02 106.48 289.37 104.95 292.02 103.42 294.68 104.95 292.02 106.48"/><polygon class="cls-4" points="297.33 109.55 294.68 108.02 297.33 106.48 299.99 108.02 297.33 109.55"/><polygon class="cls-4" points="302.64 112.61 299.99 111.08 302.64 109.55 305.3 111.08 302.64 112.61"/><polygon class="cls-4" points="254.82 91.16 252.16 89.63 254.82 88.09 257.47 89.63 254.82 91.16"/><polygon class="cls-4" points="260.13 94.23 257.47 92.69 260.13 91.16 262.78 92.69 260.13 94.23"/><polygon class="cls-4" points="265.44 97.29 262.78 95.76 265.44 94.23 268.1 95.76 265.44 97.29"/><polygon class="cls-4" points="270.75 100.36 268.1 98.83 270.75 97.29 273.41 98.83 270.75 100.36"/><polygon class="cls-4" points="276.06 103.43 273.41 101.89 276.06 100.36 278.72 101.89 276.06 103.43"/><polygon class="cls-4" points="281.38 106.49 278.72 104.96 281.38 103.43 284.03 104.96 281.38 106.49"/><polygon class="cls-4" points="286.69 109.56 284.03 108.03 286.69 106.49 289.34 108.03 286.69 109.56"/><polygon class="cls-4" points="292 112.63 289.34 111.09 292 109.56 294.66 111.09 292 112.63"/><polygon class="cls-4" points="297.31 115.69 294.66 114.16 297.31 112.63 299.97 114.16 297.31 115.69"/><polygon class="cls-4" points="249.48 94.24 246.83 92.71 249.48 91.17 252.14 92.71 249.48 94.24"/><polygon class="cls-4" points="254.79 97.31 252.14 95.77 254.79 94.24 257.45 95.77 254.79 97.31"/><polygon class="cls-26" points="260.11 100.37 257.45 98.84 260.11 97.31 262.76 98.84 260.11 100.37"/><polygon class="cls-4" points="265.42 103.44 262.76 101.91 265.42 100.37 268.07 101.91 265.42 103.44"/><polygon class="cls-25" points="270.73 106.51 268.07 104.97 270.73 103.44 273.39 104.97 270.73 106.51"/><polygon class="cls-4" points="276.04 109.57 273.39 108.04 276.04 106.51 278.7 108.04 276.04 109.57"/><polygon class="cls-4" points="281.35 112.64 278.7 111.11 281.35 109.57 284.01 111.11 281.35 112.64"/><polygon class="cls-4" points="286.67 115.71 284.01 114.17 286.67 112.64 289.32 114.17 286.67 115.71"/><polygon class="cls-4" points="291.98 118.77 289.32 117.24 291.98 115.71 294.63 117.24 291.98 118.77"/><polygon class="cls-4" points="244.15 97.32 241.49 95.78 244.15 94.25 246.81 95.78 244.15 97.32"/><polygon class="cls-4" points="249.46 100.39 246.81 98.85 249.46 97.32 252.12 98.85 249.46 100.39"/><polygon class="cls-26" points="254.77 103.45 252.12 101.92 254.77 100.39 257.43 101.92 254.77 103.45"/><polygon class="cls-4" points="260.08 106.52 257.43 104.98 260.08 103.45 262.74 104.98 260.08 106.52"/><polygon class="cls-4" points="265.4 109.59 262.74 108.05 265.4 106.52 268.05 108.05 265.4 109.59"/><polygon class="cls-25" points="270.71 112.65 268.05 111.12 270.71 109.59 273.37 111.12 270.71 112.65"/><polygon class="cls-26" points="276.02 115.72 273.37 114.19 276.02 112.65 278.68 114.19 276.02 115.72"/><polygon class="cls-4" points="281.33 118.79 278.68 117.25 281.33 115.72 283.99 117.25 281.33 118.79"/><polygon class="cls-25" points="286.64 121.85 283.99 120.32 286.64 118.79 289.3 120.32 286.64 121.85"/><polygon class="cls-4" points="238.81 100.4 236.16 98.86 238.81 97.33 241.47 98.86 238.81 100.4"/><polygon class="cls-26" points="244.13 103.46 241.47 101.93 244.13 100.4 246.78 101.93 244.13 103.46"/><polygon class="cls-4" points="249.44 106.53 246.78 105 249.44 103.46 252.09 105 249.44 106.53"/><polygon class="cls-4" points="254.75 109.6 252.09 108.06 254.75 106.53 257.41 108.06 254.75 109.6"/><polygon class="cls-4" points="260.06 112.67 257.41 111.13 260.06 109.6 262.72 111.13 260.06 112.67"/><polygon class="cls-4" points="265.38 115.73 262.72 114.2 265.38 112.67 268.03 114.2 265.38 115.73"/><polygon class="cls-4" points="270.69 118.8 268.03 117.27 270.69 115.73 273.34 117.27 270.69 118.8"/><polygon class="cls-26" points="276 121.87 273.34 120.33 276 118.8 278.65 120.33 276 121.87"/><polygon class="cls-4" points="281.31 124.93 278.65 123.4 281.31 121.87 283.97 123.4 281.31 124.93"/><polygon class="cls-4" points="233.48 103.48 230.83 101.94 233.48 100.41 236.14 101.94 233.48 103.48"/><polygon class="cls-25" points="238.79 106.54 236.14 105.01 238.79 103.48 241.45 105.01 238.79 106.54"/><polygon class="cls-4" points="244.11 109.61 241.45 108.08 244.11 106.54 246.76 108.08 244.11 109.61"/><polygon class="cls-4" points="249.42 112.68 246.76 111.14 249.42 109.61 252.07 111.14 249.42 112.68"/><polygon class="cls-4" points="254.73 115.74 252.07 114.21 254.73 112.68 257.39 114.21 254.73 115.74"/><polygon class="cls-4" points="260.04 118.81 257.39 117.28 260.04 115.74 262.7 117.28 260.04 118.81"/><polygon class="cls-26" points="265.35 121.88 262.7 120.34 265.35 118.81 268.01 120.34 265.35 121.88"/><polygon class="cls-4" points="270.67 124.94 268.01 123.41 270.67 121.88 273.32 123.41 270.67 124.94"/><polygon class="cls-4" points="275.98 128.01 273.32 126.48 275.98 124.94 278.63 126.48 275.98 128.01"/><polygon class="cls-21" points="276.06 102.79 192.42 54.5 276.06 6.21 359.71 54.5 276.06 102.79"/><polygon class="cls-15" points="276.06 89.6 215.26 54.5 276.06 19.39 336.87 54.5 276.06 89.6"/><polygon class="cls-7" points="276.06 21.77 334.81 55.69 336.87 54.5 276.06 19.39 215.26 54.5 217.32 55.69 276.06 21.77"/><polygon class="cls-27" points="359.71 54.5 359.71 81.87 276.06 130.16 276.06 102.79 359.71 54.5"/><polygon class="cls-11" points="192.42 54.5 192.42 81.87 276.06 130.16 276.06 102.79 192.42 54.5"/><g class="cls-23"><polygon class="cls-15" points="198.09 66.8 198.09 75.42 270.4 117.17 270.4 108.55 198.09 66.8"/></g><polygon class="cls-7" points="276.06 101.22 193.78 53.71 192.42 54.5 276.06 102.79 359.71 54.5 358.35 53.72 276.06 101.22"/><polygon class="cls-15" points="347.16 73.68 347.16 78.58 288.61 112.38 288.61 107.48 347.16 73.68"/><polygon class="cls-24" points="192.42 54.5 192.42 81.87 276.06 130.16 276.06 102.79 192.42 54.5"/><polygon class="cls-4" points="251.65 101.34 236.5 92.59 236.5 94.4 251.65 103.14 251.65 101.34"/><polygon class="cls-4" points="234.32 91.35 230.21 88.98 230.21 90.78 234.32 93.15 234.32 91.35"/><polygon class="cls-4" points="215.09 80.25 206.7 75.4 206.69 77.21 215.09 82.06 215.09 80.25"/><polygon class="cls-4" points="222.75 84.67 216.68 81.17 216.68 82.98 222.75 86.48 222.75 84.67"/><polygon class="cls-4" points="228.45 87.96 224.34 85.59 224.34 87.4 228.45 89.77 228.45 87.96"/><polygon class="cls-4" points="276.15 31.45 273.49 29.91 276.15 28.38 278.81 29.91 276.15 31.45"/><polygon class="cls-25" points="281.46 34.52 278.81 32.98 281.46 31.45 284.12 32.98 281.46 34.52"/><polygon class="cls-26" points="286.77 37.58 284.12 36.05 286.77 34.52 289.43 36.05 286.77 37.58"/><polygon class="cls-4" points="292.09 40.65 289.43 39.12 292.09 37.58 294.74 39.12 292.09 40.65"/><polygon class="cls-26" points="297.4 43.72 294.74 42.18 297.4 40.65 300.05 42.18 297.4 43.72"/><polygon class="cls-4" points="302.71 46.78 300.05 45.25 302.71 43.72 305.37 45.25 302.71 46.78"/><polygon class="cls-4" points="308.02 49.85 305.37 48.32 308.02 46.78 310.68 48.32 308.02 49.85"/><polygon class="cls-4" points="313.33 52.92 310.68 51.38 313.33 49.85 315.99 51.38 313.33 52.92"/><polygon class="cls-25" points="318.65 55.98 315.99 54.45 318.65 52.92 321.3 54.45 318.65 55.98"/><polygon class="cls-4" points="270.82 34.53 268.16 32.99 270.82 31.46 273.47 32.99 270.82 34.53"/><polygon class="cls-4" points="276.13 37.59 273.47 36.06 276.13 34.53 278.78 36.06 276.13 37.59"/><polygon class="cls-4" points="281.44 40.66 278.78 39.13 281.44 37.59 284.1 39.13 281.44 40.66"/><polygon class="cls-4" points="286.75 43.73 284.1 42.19 286.75 40.66 289.41 42.19 286.75 43.73"/><polygon class="cls-4" points="292.06 46.8 289.41 45.26 292.06 43.73 294.72 45.26 292.06 46.8"/><polygon class="cls-4" points="297.38 49.86 294.72 48.33 297.38 46.8 300.03 48.33 297.38 49.86"/><polygon class="cls-4" points="302.69 52.93 300.03 51.4 302.69 49.86 305.34 51.4 302.69 52.93"/><polygon class="cls-4" points="308 55.99 305.34 54.46 308 52.93 310.66 54.46 308 55.99"/><polygon class="cls-4" points="313.31 59.06 310.66 57.53 313.31 55.99 315.97 57.53 313.31 59.06"/><polygon class="cls-4" points="265.48 37.61 262.83 36.07 265.48 34.54 268.14 36.07 265.48 37.61"/><polygon class="cls-4" points="270.8 40.67 268.14 39.14 270.8 37.61 273.45 39.14 270.8 40.67"/><polygon class="cls-4" points="276.11 43.74 273.45 42.21 276.11 40.67 278.76 42.21 276.11 43.74"/><polygon class="cls-25" points="281.42 46.81 278.76 45.27 281.42 43.74 284.07 45.27 281.42 46.81"/><polygon class="cls-26" points="286.73 49.87 284.07 48.34 286.73 46.81 289.39 48.34 286.73 49.87"/><polygon class="cls-26" points="292.04 52.94 289.39 51.41 292.04 49.87 294.7 51.41 292.04 52.94"/><polygon class="cls-4" points="297.36 56.01 294.7 54.47 297.36 52.94 300.01 54.47 297.36 56.01"/><polygon class="cls-4" points="302.67 59.08 300.01 57.54 302.67 56.01 305.32 57.54 302.67 59.08"/><polygon class="cls-4" points="307.98 62.14 305.32 60.61 307.98 59.08 310.63 60.61 307.98 62.14"/><polygon class="cls-26" points="260.15 40.69 257.49 39.15 260.15 37.62 262.81 39.15 260.15 40.69"/><polygon class="cls-26" points="265.46 43.75 262.81 42.22 265.46 40.69 268.12 42.22 265.46 43.75"/><polygon class="cls-25" points="270.77 46.82 268.12 45.29 270.77 43.75 273.43 45.29 270.77 46.82"/><polygon class="cls-4" points="276.08 49.89 273.43 48.35 276.08 46.82 278.74 48.35 276.08 49.89"/><polygon class="cls-4" points="281.4 52.95 278.74 51.42 281.4 49.89 284.05 51.42 281.4 52.95"/><polygon class="cls-4" points="286.71 56.02 284.05 54.49 286.71 52.95 289.37 54.49 286.71 56.02"/><polygon class="cls-26" points="292.02 59.09 289.37 57.55 292.02 56.02 294.68 57.55 292.02 59.09"/><polygon class="cls-4" points="297.33 62.15 294.68 60.62 297.33 59.09 299.99 60.62 297.33 62.15"/><polygon class="cls-4" points="302.64 65.22 299.99 63.69 302.64 62.15 305.3 63.69 302.64 65.22"/><polygon class="cls-4" points="254.82 43.77 252.16 42.23 254.82 40.7 257.47 42.23 254.82 43.77"/><polygon class="cls-4" points="260.13 46.83 257.47 45.3 260.13 43.77 262.78 45.3 260.13 46.83"/><polygon class="cls-4" points="265.44 49.9 262.78 48.37 265.44 46.83 268.1 48.37 265.44 49.9"/><polygon class="cls-4" points="270.75 52.97 268.1 51.43 270.75 49.9 273.41 51.43 270.75 52.97"/><polygon class="cls-4" points="276.06 56.03 273.41 54.5 276.06 52.97 278.72 54.5 276.06 56.03"/><polygon class="cls-4" points="281.38 59.1 278.72 57.57 281.38 56.03 284.03 57.57 281.38 59.1"/><polygon class="cls-4" points="286.69 62.17 284.03 60.63 286.69 59.1 289.34 60.63 286.69 62.17"/><polygon class="cls-4" points="292 65.23 289.34 63.7 292 62.17 294.66 63.7 292 65.23"/><polygon class="cls-4" points="297.31 68.3 294.66 66.77 297.31 65.23 299.97 66.77 297.31 68.3"/><polygon class="cls-4" points="249.48 46.84 246.83 45.31 249.48 43.78 252.14 45.31 249.48 46.84"/><polygon class="cls-4" points="254.79 49.91 252.14 48.38 254.79 46.84 257.45 48.38 254.79 49.91"/><polygon class="cls-26" points="260.11 52.98 257.45 51.45 260.11 49.91 262.76 51.45 260.11 52.98"/><polygon class="cls-4" points="265.42 56.05 262.76 54.51 265.42 52.98 268.07 54.51 265.42 56.05"/><polygon class="cls-25" points="270.73 59.11 268.07 57.58 270.73 56.05 273.39 57.58 270.73 59.11"/><polygon class="cls-4" points="276.04 62.18 273.39 60.65 276.04 59.11 278.7 60.65 276.04 62.18"/><polygon class="cls-4" points="281.35 65.25 278.7 63.71 281.35 62.18 284.01 63.71 281.35 65.25"/><polygon class="cls-4" points="286.67 68.31 284.01 66.78 286.67 65.25 289.32 66.78 286.67 68.31"/><polygon class="cls-4" points="291.98 71.38 289.32 69.85 291.98 68.31 294.63 69.85 291.98 71.38"/><polygon class="cls-4" points="244.15 49.92 241.49 48.39 244.15 46.86 246.81 48.39 244.15 49.92"/><polygon class="cls-4" points="249.46 52.99 246.81 51.46 249.46 49.92 252.12 51.46 249.46 52.99"/><polygon class="cls-26" points="254.77 56.06 252.12 54.52 254.77 52.99 257.43 54.52 254.77 56.06"/><polygon class="cls-4" points="260.08 59.12 257.43 57.59 260.08 56.06 262.74 57.59 260.08 59.12"/><polygon class="cls-4" points="265.4 62.19 262.74 60.66 265.4 59.12 268.05 60.66 265.4 62.19"/><polygon class="cls-25" points="270.71 65.26 268.05 63.73 270.71 62.19 273.37 63.73 270.71 65.26"/><polygon class="cls-26" points="276.02 68.33 273.37 66.79 276.02 65.26 278.68 66.79 276.02 68.33"/><polygon class="cls-4" points="281.33 71.39 278.68 69.86 281.33 68.33 283.99 69.86 281.33 71.39"/><polygon class="cls-25" points="286.64 74.46 283.99 72.92 286.64 71.39 289.3 72.92 286.64 74.46"/><polygon class="cls-4" points="238.81 53 236.16 51.47 238.81 49.94 241.47 51.47 238.81 53"/><polygon class="cls-26" points="244.13 56.07 241.47 54.54 244.13 53 246.78 54.54 244.13 56.07"/><polygon class="cls-4" points="249.44 59.14 246.78 57.6 249.44 56.07 252.09 57.6 249.44 59.14"/><polygon class="cls-4" points="254.75 62.2 252.09 60.67 254.75 59.14 257.41 60.67 254.75 62.2"/><polygon class="cls-4" points="260.06 65.27 257.41 63.74 260.06 62.2 262.72 63.74 260.06 65.27"/><polygon class="cls-4" points="265.38 68.34 262.72 66.8 265.38 65.27 268.03 66.8 265.38 68.34"/><polygon class="cls-4" points="270.69 71.4 268.03 69.87 270.69 68.34 273.34 69.87 270.69 71.4"/><polygon class="cls-26" points="276 74.47 273.34 72.94 276 71.4 278.65 72.94 276 74.47"/><polygon class="cls-4" points="281.31 77.54 278.65 76 281.31 74.47 283.97 76 281.31 77.54"/><polygon class="cls-4" points="233.48 56.08 230.83 54.55 233.48 53.02 236.14 54.55 233.48 56.08"/><polygon class="cls-25" points="238.79 59.15 236.14 57.62 238.79 56.08 241.45 57.62 238.79 59.15"/><polygon class="cls-4" points="244.11 62.22 241.45 60.68 244.11 59.15 246.76 60.68 244.11 62.22"/><polygon class="cls-4" points="249.42 65.28 246.76 63.75 249.42 62.22 252.07 63.75 249.42 65.28"/><polygon class="cls-4" points="254.73 68.35 252.07 66.82 254.73 65.28 257.39 66.82 254.73 68.35"/><polygon class="cls-4" points="260.04 71.42 257.39 69.88 260.04 68.35 262.7 69.88 260.04 71.42"/><polygon class="cls-26" points="265.35 74.48 262.7 72.95 265.35 71.42 268.01 72.95 265.35 74.48"/><polygon class="cls-4" points="270.67 77.55 268.01 76.02 270.67 74.48 273.32 76.02 270.67 77.55"/><polygon class="cls-4" points="275.98 80.62 273.32 79.08 275.98 77.55 278.63 79.08 275.98 80.62"/><g class="cls-3"><path class="cls-4" d="M390,327.54a8.22,8.22,0,0,1-4.12-1.1L338.39,299a2.38,2.38,0,0,1,0-4.12l86-49.65a.49.49,0,0,1,.47,0l51.42,29.69a2.38,2.38,0,0,1,0,4.12l-82.11,47.4A8.25,8.25,0,0,1,390,327.54Zm34.58-81.36-85.76,49.51a1.45,1.45,0,0,0,0,2.5l47.52,27.44a7.44,7.44,0,0,0,7.31,0l82.11-47.4a1.45,1.45,0,0,0,0-2.5Z" transform="translate(-23.94 -77.42)"/></g><path class="cls-28" d="M424.72,226.05l-11.44-67.86.92-.39-1.38-.79h0a1,1,0,0,0-1.06.08l-91.42,52.78a2.58,2.58,0,0,0-1.19,2.32l11.53,68.4a.85.85,0,0,0,.49.7h0l1.36.78.23-1.26-.08,0,90.87-52.46A2.57,2.57,0,0,0,424.72,226.05Z" transform="translate(-23.94 -77.42)"/><path class="cls-29" d="M320.85,211.72l-1.5-.66a2.13,2.13,0,0,0-.2,1.13l11.53,68.4a.85.85,0,0,0,.49.7h0l1.36.78.23-1.26-.08,0,4.6-2.65Z" transform="translate(-23.94 -77.42)"/><path class="cls-11" d="M425,229.2,333.55,282c-.7.4-1.31.17-1.43-.56L320.59,213a2.57,2.57,0,0,1,1.19-2.32l91.41-52.78c.71-.41,1.31-.17,1.44.56l11.53,68.4A2.61,2.61,0,0,1,425,229.2Z" transform="translate(-23.94 -77.42)"/><polygon class="cls-4" points="388.06 84.85 299.94 135.73 310.87 200.15 398.93 149.31 388.06 84.85"/><path class="cls-30" d="M482.44,261.58l-5,2.61-50-28.89a3.62,3.62,0,0,0-3.26.14l-86.29,49.81c-.82-.46-4.59-2.27-4.59-2.27l1.83,4.76h0a1.09,1.09,0,0,0,.51.57l52.69,30.42a3.62,3.62,0,0,0,3.26-.14l88.29-51a1.57,1.57,0,0,0,.74-.79h0Z" transform="translate(-23.94 -77.42)"/><path class="cls-31" d="M481.66,262.4l-90.48,52.24a3.69,3.69,0,0,1-3.35.14l-54-31.17c-.86-.5-.75-1.36.24-1.94l90.49-52.24a3.75,3.75,0,0,1,3.35-.14l54,31.18C482.76,261,482.65,261.83,481.66,262.4Z" transform="translate(-23.94 -77.42)"/><path class="cls-7" d="M481.66,261.88l-90.48,52.24a3.72,3.72,0,0,1-3.35.14l-54-31.17a1.11,1.11,0,0,1-.52-.59.91.91,0,0,0,.52,1.11l54,31.17a3.69,3.69,0,0,0,3.35-.14l90.48-52.24c.67-.38.93-.9.77-1.35A1.58,1.58,0,0,1,481.66,261.88Z" transform="translate(-23.94 -77.42)"/><path class="cls-8" d="M363.88,303.34v-1c0-.09.06-.14.13-.1l3.5,2a.33.33,0,0,1,.13.25v1c0,.1-.06.14-.13.1l-3.5-2A.31.31,0,0,1,363.88,303.34Z" transform="translate(-23.94 -77.42)"/><path class="cls-8" d="M369.12,306.36v-1c0-.09.05-.13.12-.09l3.5,2a.31.31,0,0,1,.13.24v1c0,.1-.06.14-.13.1l-3.5-2A.3.3,0,0,1,369.12,306.36Z" transform="translate(-23.94 -77.42)"/><path class="cls-9" d="M347.91,280.69l75.2-43.42a1.62,1.62,0,0,1,1.62,0l26.77,15.5a.57.57,0,0,1,0,1l-75.16,43.39a1.62,1.62,0,0,1-1.62,0l-26.81-15.47A.57.57,0,0,1,347.91,280.69Z" transform="translate(-23.94 -77.42)"/><path class="cls-10" d="M347.91,281.69l.27.15,74.93-43.26a1.62,1.62,0,0,1,1.62,0l26.5,15.34.27-.15a.57.57,0,0,0,0-1l-26.77-15.5a1.62,1.62,0,0,0-1.62,0l-75.2,43.42A.57.57,0,0,0,347.91,281.69Z" transform="translate(-23.94 -77.42)"/><polygon class="cls-11" points="402.81 163.77 337.49 201.49 334.59 199.81 399.91 162.1 402.81 163.77"/><polygon class="cls-11" points="409.93 167.88 348.66 203.26 345.76 201.58 407.03 166.21 409.93 167.88"/><polygon class="cls-11" points="414.57 170.56 342.43 212.21 339.53 210.53 411.66 168.88 414.57 170.56"/><polygon class="cls-11" points="419.2 173.24 347.07 214.89 344.17 213.21 416.3 171.56 419.2 173.24"/><polygon class="cls-11" points="423.84 175.92 351.71 217.56 348.8 215.89 420.94 174.24 423.84 175.92"/><polygon class="cls-11" points="333.55 203.76 330.64 205.44 327.74 203.76 330.64 202.09 333.55 203.76"/><polygon class="cls-11" points="343.79 206.07 337.76 209.55 334.86 207.87 340.88 204.39 343.79 206.07"/><path class="cls-32" d="M426,291.19l20.28-11.7a.88.88,0,0,0,0-1.66l-13.87-8a3.16,3.16,0,0,0-2.87,0l-20.27,11.7a.87.87,0,0,0,0,1.66l13.86,8A3.16,3.16,0,0,0,426,291.19Z" transform="translate(-23.94 -77.42)"/><path class="cls-10" d="M409.27,282.21l20.27-11.71a3.22,3.22,0,0,1,2.87,0l13.87,8a1.21,1.21,0,0,1,.49.49c.21-.4.05-.85-.49-1.17l-13.87-8a3.16,3.16,0,0,0-2.87,0l-20.27,11.7c-.55.32-.71.77-.5,1.17A1.18,1.18,0,0,1,409.27,282.21Z" transform="translate(-23.94 -77.42)"/><g class="cls-33"><g class="cls-34"><path class="cls-35" d="M424.65,229.32l-90.49,52.25a3.75,3.75,0,0,1-3.35.14l-54-31.18c-.86-.49-.75-1.36.24-1.93l90.49-52.25a3.69,3.69,0,0,1,3.34-.13l54,31.17C425.75,227.89,425.64,228.75,424.65,229.32Z" transform="translate(-23.94 -77.42)"/><path class="cls-36" d="M333.89,238.69,354.17,227a.87.87,0,0,0,0-1.65l-13.87-8a3.16,3.16,0,0,0-2.87,0L317.16,229a.87.87,0,0,0,0,1.66l13.86,8A3.16,3.16,0,0,0,333.89,238.69Z" transform="translate(-23.94 -77.42)"/><path class="cls-10" d="M317.16,229.71,337.43,218a3.16,3.16,0,0,1,2.87,0l13.87,8a1.36,1.36,0,0,1,.5.48c.2-.4,0-.85-.5-1.16l-13.87-8a3.16,3.16,0,0,0-2.87,0L317.16,229c-.55.31-.71.77-.5,1.17A1.18,1.18,0,0,1,317.16,229.71Z" transform="translate(-23.94 -77.42)"/><path class="cls-9" d="M308.24,257l75.2-43.41a1.62,1.62,0,0,1,1.62,0l26.78,15.49a.58.58,0,0,1,0,1l-75.16,43.4a1.62,1.62,0,0,1-1.62,0L308.24,258A.58.58,0,0,1,308.24,257Z" transform="translate(-23.94 -77.42)"/><path class="cls-10" d="M308.24,258l.27.16,74.93-43.26a1.62,1.62,0,0,1,1.62,0l26.51,15.34.27-.16a.58.58,0,0,0,0-1l-26.78-15.49a1.62,1.62,0,0,0-1.62,0L308.24,257A.58.58,0,0,0,308.24,258Z" transform="translate(-23.94 -77.42)"/><polygon class="cls-11" points="380.89 150.58 315.38 188.4 317.98 189.9 383.49 152.08 380.89 150.58"/><polygon class="cls-11" points="373.99 146.6 311.73 182.55 314.32 184.04 376.59 148.09 373.99 146.6"/><polygon class="cls-11" points="307.08 185.23 301.26 188.59 303.86 190.09 309.67 186.73 307.08 185.23"/><polygon class="cls-11" points="312.21 190.24 308.16 192.57 310.76 194.07 314.81 191.73 312.21 190.24"/><polygon class="cls-11" points="369.67 144.1 296.94 186.09 299.53 187.59 372.26 145.6 369.67 144.1"/><polygon class="cls-11" points="365.34 141.6 292.61 183.59 295.21 185.09 367.94 143.1 365.34 141.6"/><polygon class="cls-11" points="361.02 139.11 288.29 181.1 290.88 182.59 363.61 140.6 361.02 139.11"/></g></g><polygon class="cls-37" points="333.12 175.59 340.25 171.47 340.46 172.71 333.33 176.83 333.12 175.59"/><polygon class="cls-37" points="341.4 170.81 345.28 168.57 345.49 169.8 341.61 172.05 341.4 170.81"/><polygon class="cls-37" points="351.33 165.08 354.14 163.45 354.35 164.69 351.54 166.31 351.33 165.08"/><polygon class="cls-37" points="349.28 166.26 350.24 165.71 350.45 166.94 349.49 167.5 349.28 166.26"/><polygon class="cls-37" points="346.44 167.9 348.19 166.89 348.4 168.13 346.65 169.14 346.44 167.9"/><polygon class="cls-37" points="338.76 166.12 341.57 164.5 341.78 165.73 338.97 167.36 338.76 166.12"/><polygon class="cls-37" points="332.17 169.93 337.68 166.75 337.88 167.99 332.38 171.17 332.17 169.93"/><polygon class="cls-37" points="340.06 149.87 345.57 146.69 345.78 147.92 340.27 151.11 340.06 149.87"/><polygon class="cls-37" points="337.23 151.51 338.97 150.5 339.18 151.74 337.44 152.75 337.23 151.51"/><polygon class="cls-37" points="340.98 155.53 346.49 152.35 346.7 153.59 341.19 156.77 340.98 155.53"/><polygon class="cls-37" points="338.15 157.17 339.89 156.16 340.1 157.4 338.36 158.41 338.15 157.17"/><polygon class="cls-37" points="336 125.43 325.62 131.42 325.42 130.19 335.79 124.19 336 125.43"/><polygon class="cls-37" points="339.65 123.31 337.09 124.8 336.88 123.56 339.45 122.08 339.65 123.31"/><polygon class="cls-37" points="357.88 122.11 347.51 128.11 347.3 126.87 357.68 120.87 357.88 122.11"/><polygon class="cls-37" points="361.54 120 358.97 121.48 358.76 120.25 361.33 118.76 361.54 120"/><polygon class="cls-37" points="328.91 132.63 326.1 134.25 325.89 133.01 328.7 131.39 328.91 132.63"/><polygon class="cls-37" points="346.01 128.96 343.2 130.58 342.99 129.35 345.8 127.72 346.01 128.96"/><polygon class="cls-37" points="335.51 128.81 330 132 329.79 130.76 335.3 127.58 335.51 128.81"/><polygon class="cls-37" points="338.34 127.18 336.6 128.19 336.39 126.95 338.13 125.94 338.34 127.18"/><polygon class="cls-37" points="344.99 123.34 339.48 126.53 339.27 125.29 344.78 122.11 344.99 123.34"/><polygon class="cls-37" points="347.82 121.7 346.08 122.71 345.87 121.47 347.61 120.47 347.82 121.7"/><polygon class="cls-37" points="345.54 126.13 342.73 127.75 342.51 126.52 345.33 124.89 345.54 126.13"/><polygon class="cls-37" points="352.13 122.32 346.62 125.5 346.42 124.26 351.92 121.08 352.13 122.32"/><polygon class="cls-37" points="354.96 120.68 353.22 121.69 353.01 120.45 354.76 119.44 354.96 120.68"/><polygon class="cls-37" points="332.33 133.76 326.58 137.08 326.37 135.84 332.12 132.52 332.33 133.76"/><polygon class="cls-37" points="337.58 130.72 333.42 133.13 333.21 131.89 337.37 129.49 337.58 130.72"/><polygon class="cls-37" points="341.48 128.47 338.67 130.09 338.46 128.85 341.27 127.23 341.48 128.47"/><polygon class="cls-37" points="368.74 115.85 362.99 119.18 362.78 117.94 368.53 114.61 368.74 115.85"/><polygon class="cls-37" points="373.98 112.82 369.83 115.22 369.62 113.98 373.77 111.58 373.98 112.82"/><polygon class="cls-37" points="377.88 110.57 375.07 112.19 374.86 110.95 377.68 109.33 377.88 110.57"/><polygon class="cls-37" points="366.49 153.22 372.24 149.9 372.45 151.13 366.7 154.46 366.49 153.22"/><polygon class="cls-37" points="361.24 156.25 365.4 153.85 365.61 155.09 361.45 157.49 361.24 156.25"/><polygon class="cls-37" points="357.34 158.51 360.15 156.88 360.36 158.12 357.55 159.74 357.34 158.51"/><polygon class="cls-37" points="364.58 157.44 370.33 154.11 370.54 155.35 364.79 158.68 364.58 157.44"/><polygon class="cls-37" points="359.33 160.47 363.49 158.07 363.7 159.31 359.54 161.71 359.33 160.47"/><polygon class="cls-37" points="355.43 162.72 358.25 161.1 358.45 162.34 355.64 163.96 355.43 162.72"/><polygon class="cls-37" points="341.36 152.21 343.3 151.09 343.51 152.32 341.57 153.45 341.36 152.21"/><polygon class="cls-37" points="337.7 154.32 340.27 152.84 340.48 154.07 337.91 155.56 337.7 154.32"/><polygon class="cls-37" points="332.85 136.57 327.09 139.89 326.89 138.65 332.64 135.33 332.85 136.57"/><polygon class="cls-37" points="338.09 133.53 333.93 135.94 333.73 134.7 337.88 132.3 338.09 133.53"/><polygon class="cls-37" points="341.99 131.28 339.18 132.91 338.97 131.67 341.78 130.04 341.99 131.28"/><polygon class="cls-37" points="329.51 141.6 327.57 142.72 327.36 141.48 329.31 140.36 329.51 141.6"/><polygon class="cls-37" points="333.17 139.48 330.6 140.97 330.39 139.73 332.96 138.25 333.17 139.48"/><polygon class="cls-37" points="338.4 136.46 334.26 138.85 334.05 137.62 338.19 135.22 338.4 136.46"/><polygon class="cls-37" points="344 160 345.95 158.88 346.15 160.12 344.21 161.24 344 160"/><polygon class="cls-37" points="340.35 162.12 342.92 160.63 343.12 161.87 340.56 163.36 340.35 162.12"/><polygon class="cls-37" points="335.12 165.14 339.26 162.75 339.47 163.99 335.33 166.38 335.12 165.14"/><polygon class="cls-37" points="346.96 155.41 351.1 153.02 351.31 154.26 347.17 156.65 346.96 155.41"/><polygon class="cls-37" points="340.2 159.1 345.77 155.88 345.98 157.12 340.41 160.34 340.2 159.1"/><polygon class="cls-37" points="337.37 160.74 339.11 159.73 339.32 160.97 337.57 161.98 337.37 160.74"/><polygon class="cls-37" points="334.64 162.31 336.39 161.3 336.6 162.54 334.85 163.55 334.64 162.31"/><polygon class="cls-37" points="335.02 146.33 340.53 143.15 340.74 144.39 335.23 147.57 335.02 146.33"/><polygon class="cls-37" points="332.19 147.97 333.93 146.96 334.14 148.2 332.39 149.21 332.19 147.97"/><polygon class="cls-37" points="335.4 143.01 337.34 141.88 337.55 143.12 335.61 144.24 335.4 143.01"/><polygon class="cls-37" points="342.25 145.27 344.2 144.15 344.41 145.39 342.46 146.51 342.25 145.27"/><polygon class="cls-37" points="345.02 143.67 349.69 140.98 349.89 142.22 345.23 144.91 345.02 143.67"/><polygon class="cls-37" points="350.51 140.51 353.28 138.9 353.49 140.14 350.72 141.74 350.51 140.51"/><polygon class="cls-37" points="331.74 145.12 334.31 143.64 334.52 144.87 331.95 146.36 331.74 145.12"/><polygon class="cls-37" points="331.5 142.21 333.44 141.09 333.65 142.33 331.71 143.45 331.5 142.21"/><polygon class="cls-37" points="327.84 144.33 330.41 142.84 330.62 144.08 328.05 145.56 327.84 144.33"/><polygon class="cls-37" points="339.44 146.9 341.18 145.89 341.39 147.13 339.65 148.14 339.44 146.9"/><polygon class="cls-37" points="336.72 148.47 338.46 147.46 338.67 148.7 336.93 149.71 336.72 148.47"/><polygon class="cls-37" points="350.12 162.68 356.06 159.24 356.27 160.48 350.32 163.92 350.12 162.68"/><polygon class="cls-37" points="343.45 166.53 349.03 163.31 349.24 164.55 343.66 167.77 343.45 166.53"/><polygon class="cls-37" points="340.62 168.17 342.36 167.16 342.57 168.4 340.83 169.41 340.62 168.17"/><polygon class="cls-37" points="337.9 169.74 339.64 168.74 339.85 169.97 338.11 170.98 337.9 169.74"/><polygon class="cls-37" points="336.41 170.6 332.65 172.78 332.86 174.02 336.62 171.84 336.41 170.6"/><g class="cls-3"><path class="cls-4" d="M210,327.54a8.25,8.25,0,0,1-4.12-1.1h0L123.73,279a2.38,2.38,0,0,1,0-4.12l51.42-29.69a.49.49,0,0,1,.47,0l86,49.65a2.38,2.38,0,0,1,0,4.12l-47.53,27.44A8.22,8.22,0,0,1,210,327.54Zm-3.65-1.91a7.44,7.44,0,0,0,7.31,0l47.52-27.44a1.45,1.45,0,0,0,0-2.5l-85.76-49.51-.16.1-51,29.45a1.45,1.45,0,0,0,0,2.5Z" transform="translate(-23.94 -77.42)"/></g><path class="cls-38" d="M175.28,226.05l11.44-67.86-.92-.39,1.38-.79h0a1,1,0,0,1,1.06.08l91.42,52.78a2.58,2.58,0,0,1,1.19,2.32l-11.53,68.4a.85.85,0,0,1-.49.7h0l-1.36.78-.23-1.26.08,0-90.87-52.46A2.57,2.57,0,0,1,175.28,226.05Z" transform="translate(-23.94 -77.42)"/><path class="cls-39" d="M279.15,211.72l1.5-.66a2.13,2.13,0,0,1,.2,1.13l-11.53,68.4a.85.85,0,0,1-.49.7h0l-1.36.78-.23-1.26.08,0-4.6-2.65Z" transform="translate(-23.94 -77.42)"/><path class="cls-11" d="M175,229.2,266.45,282c.7.4,1.31.17,1.43-.56L279.41,213a2.57,2.57,0,0,0-1.19-2.32l-91.41-52.78c-.71-.41-1.31-.17-1.44.56l-11.53,68.4A2.61,2.61,0,0,0,175,229.2Z" transform="translate(-23.94 -77.42)"/><polygon class="cls-4" points="164.06 84.85 252.19 135.73 241.26 200.15 153.2 149.31 164.06 84.85"/><path class="cls-40" d="M117.56,261.58l5,2.61,50-28.89a3.62,3.62,0,0,1,3.26.14l86.29,49.81c.82-.46,4.59-2.27,4.59-2.27l-1.83,4.76h0a1.09,1.09,0,0,1-.51.57l-52.69,30.42a3.62,3.62,0,0,1-3.26-.14l-88.29-51a1.57,1.57,0,0,1-.74-.79h0Z" transform="translate(-23.94 -77.42)"/><path class="cls-41" d="M118.34,262.4l90.48,52.24a3.69,3.69,0,0,0,3.35.14l54-31.17c.86-.5.75-1.36-.24-1.94l-90.49-52.24a3.75,3.75,0,0,0-3.35-.14l-54,31.18C117.24,261,117.35,261.83,118.34,262.4Z" transform="translate(-23.94 -77.42)"/><path class="cls-7" d="M118.34,261.88l90.48,52.24a3.72,3.72,0,0,0,3.35.14l54-31.17a1.11,1.11,0,0,0,.52-.59.91.91,0,0,1-.52,1.11l-54,31.17a3.69,3.69,0,0,1-3.35-.14L118.34,262.4c-.67-.38-.93-.9-.77-1.35A1.58,1.58,0,0,0,118.34,261.88Z" transform="translate(-23.94 -77.42)"/><path class="cls-8" d="M236.12,303.34v-1c0-.09-.06-.14-.13-.1l-3.5,2a.33.33,0,0,0-.13.25v1c0,.1.06.14.13.1l3.5-2A.31.31,0,0,0,236.12,303.34Z" transform="translate(-23.94 -77.42)"/><path class="cls-8" d="M230.88,306.36v-1c0-.09,0-.13-.12-.09l-3.5,2a.31.31,0,0,0-.13.24v1c0,.1.06.14.13.1l3.5-2A.3.3,0,0,0,230.88,306.36Z" transform="translate(-23.94 -77.42)"/><path class="cls-9" d="M252.09,280.69l-75.2-43.42a1.62,1.62,0,0,0-1.62,0l-26.77,15.5a.57.57,0,0,0,0,1l75.16,43.39a1.62,1.62,0,0,0,1.62,0l26.81-15.47A.57.57,0,0,0,252.09,280.69Z" transform="translate(-23.94 -77.42)"/><path class="cls-10" d="M252.09,281.69l-.27.15-74.93-43.26a1.62,1.62,0,0,0-1.62,0l-26.5,15.34-.27-.15a.57.57,0,0,1,0-1l26.77-15.5a1.62,1.62,0,0,1,1.62,0l75.2,43.42A.57.57,0,0,1,252.09,281.69Z" transform="translate(-23.94 -77.42)"/><polygon class="cls-11" points="155.61 167.41 219.26 204.15 222.01 202.39 158.52 165.74 155.61 167.41"/><polygon class="cls-11" points="151.47 173.24 209.26 206.6 211.24 204.39 154.38 171.56 151.47 173.24"/><polygon class="cls-11" points="137.56 170.56 209.69 212.21 212.6 210.53 140.46 168.88 137.56 170.56"/><polygon class="cls-11" points="132.92 173.24 205.06 214.89 207.96 213.21 135.83 171.56 132.92 173.24"/><polygon class="cls-11" points="128.28 175.92 200.42 217.56 203.32 215.89 131.19 174.24 128.28 175.92"/><polygon class="cls-11" points="218.58 203.76 221.49 205.44 224.39 203.76 221.49 202.09 218.58 203.76"/><polygon class="cls-11" points="208.34 206.07 214.37 209.55 217.27 207.87 211.24 204.39 208.34 206.07"/><path class="cls-42" d="M174,291.19l-20.28-11.7a.88.88,0,0,1,0-1.66l13.87-8a3.16,3.16,0,0,1,2.87,0l20.27,11.7a.87.87,0,0,1,0,1.66l-13.86,8A3.16,3.16,0,0,1,174,291.19Z" transform="translate(-23.94 -77.42)"/><path class="cls-10" d="M190.73,282.21,170.46,270.5a3.22,3.22,0,0,0-2.87,0l-13.87,8a1.21,1.21,0,0,0-.49.49c-.21-.4,0-.85.49-1.17l13.87-8a3.16,3.16,0,0,1,2.87,0l20.27,11.7c.55.32.71.77.5,1.17A1.18,1.18,0,0,0,190.73,282.21Z" transform="translate(-23.94 -77.42)"/><g class="cls-33"><g class="cls-43"><path class="cls-44" d="M175.35,229.32l90.49,52.25a3.75,3.75,0,0,0,3.35.14l54-31.18c.86-.49.75-1.36-.24-1.93l-90.49-52.25a3.69,3.69,0,0,0-3.34-.13l-54,31.17C174.25,227.89,174.36,228.75,175.35,229.32Z" transform="translate(-23.94 -77.42)"/><path class="cls-45" d="M266.11,238.69,245.83,227a.87.87,0,0,1,0-1.65l13.87-8a3.16,3.16,0,0,1,2.87,0L282.84,229a.87.87,0,0,1,0,1.66l-13.86,8A3.16,3.16,0,0,1,266.11,238.69Z" transform="translate(-23.94 -77.42)"/><path class="cls-10" d="M282.84,229.71,262.57,218a3.16,3.16,0,0,0-2.87,0l-13.87,8a1.36,1.36,0,0,0-.5.48c-.2-.4,0-.85.5-1.16l13.87-8a3.16,3.16,0,0,1,2.87,0L282.84,229c.55.31.71.77.5,1.17A1.18,1.18,0,0,0,282.84,229.71Z" transform="translate(-23.94 -77.42)"/><path class="cls-9" d="M291.76,257l-75.2-43.41a1.62,1.62,0,0,0-1.62,0l-26.78,15.49a.58.58,0,0,0,0,1l75.16,43.4a1.62,1.62,0,0,0,1.62,0L291.76,258A.58.58,0,0,0,291.76,257Z" transform="translate(-23.94 -77.42)"/><path class="cls-10" d="M291.76,258l-.27.16-74.93-43.26a1.62,1.62,0,0,0-1.62,0l-26.51,15.34-.27-.16a.58.58,0,0,1,0-1l26.78-15.49a1.62,1.62,0,0,1,1.62,0L291.76,257A.58.58,0,0,1,291.76,258Z" transform="translate(-23.94 -77.42)"/><polygon class="cls-11" points="171.23 150.58 236.74 188.4 234.15 189.9 168.64 152.08 171.23 150.58"/><polygon class="cls-11" points="178.14 146.6 240.4 182.55 237.81 184.04 175.54 148.09 178.14 146.6"/><polygon class="cls-11" points="245.05 185.23 250.87 188.59 248.27 190.09 242.46 186.73 245.05 185.23"/><polygon class="cls-11" points="239.91 190.24 243.96 192.57 241.37 194.07 237.32 191.73 239.91 190.24"/><polygon class="cls-11" points="182.46 144.1 255.19 186.09 252.6 187.59 179.87 145.6 182.46 144.1"/><polygon class="cls-11" points="186.79 141.6 259.52 183.59 256.92 185.09 184.19 143.1 186.79 141.6"/><polygon class="cls-11" points="191.11 139.11 263.84 181.1 261.25 182.59 188.52 140.6 191.11 139.11"/></g></g><polygon class="cls-37" points="183.79 108.73 190.92 112.85 191.13 111.61 184 107.49 183.79 108.73"/><polygon class="cls-37" points="192.07 113.51 195.96 115.75 196.16 114.52 192.28 112.27 192.07 113.51"/><polygon class="cls-37" points="202 119.24 204.81 120.87 205.02 119.63 202.21 118.01 202 119.24"/><polygon class="cls-37" points="199.95 118.06 200.91 118.61 201.12 117.38 200.16 116.82 199.95 118.06"/><polygon class="cls-37" points="197.12 116.42 198.86 117.43 199.07 116.19 197.32 115.18 197.12 116.42"/><polygon class="cls-37" points="189.44 118.2 192.25 119.83 192.46 118.59 189.65 116.96 189.44 118.2"/><polygon class="cls-37" points="182.84 114.39 188.35 117.57 188.56 116.33 183.05 113.15 182.84 114.39"/><polygon class="cls-37" points="190.74 134.45 196.24 137.63 196.45 136.4 190.94 133.21 190.74 134.45"/><polygon class="cls-37" points="187.9 132.81 189.65 133.82 189.85 132.58 188.11 131.58 187.9 132.81"/><polygon class="cls-37" points="191.65 128.79 197.16 131.97 197.37 130.73 191.86 127.55 191.65 128.79"/><polygon class="cls-37" points="188.82 127.15 190.56 128.16 190.77 126.92 189.03 125.91 188.82 127.15"/><polygon class="cls-37" points="186.67 158.89 176.3 152.9 176.09 154.13 186.46 160.13 186.67 158.89"/><polygon class="cls-37" points="190.33 161.01 187.76 159.52 187.55 160.76 190.12 162.24 190.33 161.01"/><polygon class="cls-37" points="208.56 162.21 198.18 156.21 197.97 157.45 208.35 163.45 208.56 162.21"/><polygon class="cls-37" points="212.21 164.32 209.65 162.84 209.44 164.08 212 165.56 212.21 164.32"/><polygon class="cls-37" points="179.58 151.69 176.77 150.07 176.56 151.31 179.38 152.93 179.58 151.69"/><polygon class="cls-37" points="196.68 155.36 193.87 153.74 193.66 154.97 196.47 156.6 196.68 155.36"/><polygon class="cls-37" points="186.18 155.51 180.67 152.32 180.46 153.56 185.97 156.74 186.18 155.51"/><polygon class="cls-37" points="189.01 157.14 187.27 156.13 187.06 157.37 188.8 158.38 189.01 157.14"/><polygon class="cls-37" points="195.66 160.98 190.15 157.8 189.94 159.03 195.45 162.22 195.66 160.98"/><polygon class="cls-37" points="198.49 162.62 196.75 161.61 196.54 162.85 198.28 163.85 198.49 162.62"/><polygon class="cls-37" points="196.21 158.19 193.4 156.57 193.19 157.8 196 159.43 196.21 158.19"/><polygon class="cls-37" points="202.8 162 197.3 158.82 197.09 160.06 202.59 163.24 202.8 162"/><polygon class="cls-37" points="205.64 163.64 203.89 162.63 203.68 163.87 205.43 164.88 205.64 163.64"/><polygon class="cls-37" points="183 150.56 177.25 147.24 177.04 148.48 182.79 151.8 183 150.56"/><polygon class="cls-37" points="188.25 153.6 184.09 151.19 183.88 152.43 188.04 154.84 188.25 153.6"/><polygon class="cls-37" points="192.15 155.85 189.34 154.23 189.13 155.47 191.94 157.09 192.15 155.85"/><polygon class="cls-37" points="219.41 168.47 213.66 165.14 213.45 166.38 219.2 169.71 219.41 168.47"/><polygon class="cls-37" points="224.66 171.5 220.5 169.1 220.29 170.34 224.45 172.74 224.66 171.5"/><polygon class="cls-37" points="228.56 173.75 225.75 172.13 225.54 173.37 228.35 174.99 228.56 173.75"/><polygon class="cls-37" points="217.16 131.1 222.91 134.43 223.12 133.19 217.37 129.86 217.16 131.1"/><polygon class="cls-37" points="211.91 128.07 216.07 130.47 216.28 129.23 212.12 126.83 211.91 128.07"/><polygon class="cls-37" points="208.01 125.81 210.82 127.44 211.03 126.2 208.22 124.58 208.01 125.81"/><polygon class="cls-37" points="215.25 126.88 221 130.21 221.21 128.97 215.46 125.64 215.25 126.88"/><polygon class="cls-37" points="210 123.85 214.16 126.25 214.37 125.02 210.21 122.61 210 123.85"/><polygon class="cls-37" points="206.1 121.6 208.92 123.22 209.13 121.98 206.31 120.36 206.1 121.6"/><polygon class="cls-37" points="192.03 132.11 193.97 133.24 194.18 132 192.24 130.88 192.03 132.11"/><polygon class="cls-37" points="188.38 130 190.94 131.48 191.15 130.25 188.59 128.76 188.38 130"/><polygon class="cls-37" points="183.52 147.75 177.77 144.43 177.56 145.67 183.31 148.99 183.52 147.75"/><polygon class="cls-37" points="188.76 150.79 184.61 148.38 184.4 149.62 188.56 152.03 188.76 150.79"/><polygon class="cls-37" points="192.66 153.04 189.85 151.42 189.64 152.65 192.46 154.28 192.66 153.04"/><polygon class="cls-37" points="180.19 142.72 178.24 141.6 178.03 142.84 179.98 143.96 180.19 142.72"/><polygon class="cls-37" points="183.84 144.84 181.28 143.35 181.07 144.59 183.63 146.08 183.84 144.84"/><polygon class="cls-37" points="189.07 147.86 184.93 145.47 184.72 146.71 188.86 149.1 189.07 147.86"/><polygon class="cls-37" points="194.68 124.32 196.62 125.44 196.83 124.2 194.88 123.08 194.68 124.32"/><polygon class="cls-37" points="191.02 122.2 193.59 123.69 193.79 122.45 191.23 120.96 191.02 122.2"/><polygon class="cls-37" points="185.79 119.18 189.93 121.57 190.14 120.33 186 117.94 185.79 119.18"/><polygon class="cls-37" points="197.63 128.91 201.77 131.3 201.98 130.06 197.84 127.67 197.63 128.91"/><polygon class="cls-37" points="190.87 125.22 196.44 128.44 196.65 127.2 191.08 123.98 190.87 125.22"/><polygon class="cls-37" points="188.04 123.58 189.78 124.59 189.99 123.35 188.25 122.34 188.04 123.58"/><polygon class="cls-37" points="185.32 122.01 187.06 123.02 187.27 121.78 185.53 120.77 185.32 122.01"/><polygon class="cls-37" points="185.69 137.99 191.2 141.17 191.41 139.93 185.9 136.75 185.69 137.99"/><polygon class="cls-37" points="182.86 136.35 184.6 137.36 184.81 136.12 183.07 135.11 182.86 136.35"/><polygon class="cls-37" points="186.07 141.31 188.01 142.44 188.22 141.2 186.28 140.08 186.07 141.31"/><polygon class="cls-37" points="192.93 139.05 194.87 140.17 195.08 138.93 193.13 137.81 192.93 139.05"/><polygon class="cls-37" points="195.69 140.65 200.36 143.34 200.56 142.1 195.9 139.41 195.69 140.65"/><polygon class="cls-37" points="201.18 143.81 203.96 145.42 204.16 144.18 201.39 142.58 201.18 143.81"/><polygon class="cls-37" points="182.41 139.2 184.98 140.69 185.19 139.45 182.62 137.96 182.41 139.2"/><polygon class="cls-37" points="182.17 142.11 184.11 143.23 184.32 141.99 182.38 140.87 182.17 142.11"/><polygon class="cls-37" points="178.51 139.99 181.08 141.48 181.29 140.24 178.72 138.76 178.51 139.99"/><polygon class="cls-37" points="190.11 137.42 191.85 138.43 192.06 137.19 190.32 136.18 190.11 137.42"/><polygon class="cls-37" points="187.39 135.85 189.13 136.86 189.34 135.62 187.6 134.61 187.39 135.85"/><polygon class="cls-37" points="200.79 121.64 206.74 125.08 206.94 123.84 201 120.4 200.79 121.64"/><polygon class="cls-37" points="194.12 117.79 199.7 121.01 199.91 119.77 194.33 116.55 194.12 117.79"/><polygon class="cls-37" points="191.29 116.15 193.03 117.16 193.24 115.92 191.5 114.91 191.29 116.15"/><polygon class="cls-37" points="188.57 114.58 190.31 115.58 190.52 114.35 188.78 113.34 188.57 114.58"/><polygon class="cls-37" points="187.08 113.72 183.32 111.54 183.53 110.31 187.29 112.48 187.08 113.72"/><polygon class="cls-11" points="149.32 163.77 152.22 165.45 155.13 163.77 152.22 162.1 149.32 163.77"/><polygon class="cls-11" points="142.2 167.88 148.23 171.36 151.13 169.69 145.1 166.21 142.2 167.88"/><polygon class="cls-46" points="164.06 84.85 0 181.79 86.94 293.91 241.26 200.15 252.19 135.73 164.06 84.85"/><polygon class="cls-47" points="388.06 84.85 552.13 181.79 465.19 293.91 310.87 200.15 299.94 135.73 388.06 84.85"/></g></g></svg>