<svg xmlns="http://www.w3.org/2000/svg" viewBox="0 0 769.63 630.62"><defs><style>.cls-1{isolation:isolate;}.cls-2{fill:#b29a80;}.cls-11,.cls-12,.cls-14,.cls-15,.cls-2,.cls-22,.cls-26,.cls-3,.cls-34,.cls-35,.cls-36,.cls-37,.cls-38,.cls-4,.cls-5,.cls-6,.cls-9{fill-rule:evenodd;}.cls-3{fill:#67a5a5;}.cls-4{fill:#edb21d;}.cls-5,.cls-8{fill:#958275;}.cls-6,.cls-7{fill:#c3ae95;}.cls-9{fill:#7a6c62;}.cls-10{opacity:0.14;mix-blend-mode:multiply;}.cls-12{fill:#666;}.cls-13,.cls-22{fill:gray;}.cls-14{fill:#959595;}.cls-15{fill:#fff;}.cls-16{fill:#1a1a1a;}.cls-17{fill:#f4f7f9;}.cls-18,.cls-19,.cls-28{fill:none;stroke-miterlimit:10;}.cls-18{stroke:#000;}.cls-18,.cls-19{stroke-width:1.59px;}.cls-19{stroke:#4d4d4d;}.cls-20{fill:#f53937;}.cls-21,.cls-38{fill:#4d4d4d;}.cls-23{fill:#e2e2e2;}.cls-24{fill:#a1d6db;}.cls-25{fill:#eee;}.cls-26{fill:#f7d323;}.cls-27,.cls-37{fill:#333;}.cls-28{stroke:#333;stroke-width:0.45px;}.cls-29{fill:#b8bcbc;}.cls-30{fill:#1e7a82;}.cls-31{fill:#473d2d;}.cls-32,.cls-35{fill:#ffdebd;}.cls-33{fill:#da7976;}.cls-34{fill:#228891;}.cls-36{fill:#ce4c48;}</style></defs><title>404-error</title><g class="cls-1"><g id="Objects"><polygon class="cls-2" points="766.1 630.62 767.58 355.2 546.56 394.25 697.73 630.62 766.1 630.62"/><path class="cls-3" d="M790,508.37" transform="translate(0 -169.38)"/><polyline class="cls-4" points="562.67 329.29 541 329.29 527.67 306.95"/><polygon class="cls-5" points="551.22 201.52 0 341.62 0 443.02 114.55 565.75 769.55 354.77 769.55 327.13 551.22 201.52"/><polygon class="cls-6" points="551.3 174.08 0 315.63 0 408.68 115.67 531.78 769.63 327.33 551.3 174.08"/><rect class="cls-7" y="412.85" width="117.36" height="217.77"/><polygon class="cls-5" points="129.67 630.62 129.67 527.62 115 531.62 115 630.62 129.67 630.62"/><rect class="cls-8" x="754.72" y="336.3" width="14.67" height="294.32"/><polygon class="cls-9" points="0 408.62 0 445.62 115.08 566.7 115.67 531.95 0 408.62"/><g class="cls-10"><polygon class="cls-11" points="269 269.76 268.29 301.73 345.24 279.85 347.43 250.4 269 269.76"/></g><polygon class="cls-12" points="273 267.76 272.29 299.73 349.24 277.85 351.43 248.4 273 267.76"/><g class="cls-10"><path d="M344.85,449.08l24.65,18.38c7,5.23,5.89,11.58-2.47,14.12l-55.18,16.75c-8.36,2.54-20-.72-25.76-7.24l-17.8-20" transform="translate(0 -169.38)"/></g><path class="cls-13" d="M348.85,447.08l24.65,18.38c7,5.23,5.89,11.58-2.47,14.12l-55.18,16.75c-8.36,2.54-20-.72-25.76-7.24l-17.8-20" transform="translate(0 -169.38)"/><g class="cls-10"><path class="cls-11" d="M130.58,228.06a16.1,16.1,0,0,1,14-17.7L446.89,173.5a14.37,14.37,0,0,1,16.34,13.95l7.27,198.74c.32,8.73-6.4,17.43-14.92,19.34l-282.12,63.1a14,14,0,0,1-17.27-12.32Z" transform="translate(0 -169.38)"/></g><path class="cls-14" d="M132.58,224.06a16.1,16.1,0,0,1,14-17.7L448.89,169.5a14.37,14.37,0,0,1,16.34,13.95l7.27,198.74c.32,8.73-6.4,17.43-14.92,19.34l-282.12,63.1a14,14,0,0,1-17.27-12.32Z" transform="translate(0 -169.38)"/><polygon class="cls-15" points="156.85 65.35 436.03 28.52 446.72 209.39 180.52 262.57 156.85 65.35"/><path class="cls-16" d="M289.64,200.88a4.77,4.77,0,1,1,4.53,5A4.76,4.76,0,0,1,289.64,200.88Z" transform="translate(0 -169.38)"/><path class="cls-17" d="M217,454.77c1.15,8,3.86,17.53-.1,25.15-2.13,4.09-5.81,7.29-9.32,10.17-3.24,2.66-6.66,5.16-10,7.65C184.25,507.61,168,520.37,168,538.61a30.31,30.31,0,0,0,2.67,11.89c.5,1.19,2.22.17,1.72-1-8.52-20.08,8.4-36.59,23.1-47.7,6.75-5.09,14.12-9.8,19.8-16.11,5.29-5.88,6.16-12.58,5.3-20.2-.42-3.76-1.05-7.51-1.6-11.26-.18-1.27-2.11-.73-1.92.54Z" transform="translate(0 -169.38)"/><g class="cls-10"><path d="M210,585.63a21.84,21.84,0,0,1-14.83,27.1h0a21.85,21.85,0,0,1-27.09-14.83l-7.21-24.65a21.84,21.84,0,0,1,14.83-27.09h0A21.84,21.84,0,0,1,202.82,561Z" transform="translate(0 -169.38)"/><line class="cls-18" x1="175.73" y1="376.78" x2="184.14" y2="404.1"/><path d="M185.82,575.48a1.05,1.05,0,0,1-.72,1.31h0a1.06,1.06,0,0,1-1.31-.72l-.6-2a1.06,1.06,0,0,1,.72-1.31h0a1.05,1.05,0,0,1,1.32.72Z" transform="translate(0 -169.38)"/><path d="M184.23,565.63a2.16,2.16,0,0,1-1.66,2.53h0a2.17,2.17,0,0,1-2.77-1.23l-3.06-10.48a2.15,2.15,0,0,1,1.66-2.52h0a2.16,2.16,0,0,1,2.77,1.23Z" transform="translate(0 -169.38)"/></g><path class="cls-13" d="M206,583.63a21.84,21.84,0,0,1-14.83,27.1h0a21.85,21.85,0,0,1-27.09-14.83l-7.21-24.65a21.84,21.84,0,0,1,14.83-27.09h0A21.84,21.84,0,0,1,198.82,559Z" transform="translate(0 -169.38)"/><line class="cls-19" x1="171.73" y1="374.78" x2="180.14" y2="402.1"/><path class="cls-20" d="M181.82,573.48a1.05,1.05,0,0,1-.72,1.31h0a1.06,1.06,0,0,1-1.31-.72l-.6-2a1.06,1.06,0,0,1,.72-1.31h0a1.05,1.05,0,0,1,1.32.72Z" transform="translate(0 -169.38)"/><path class="cls-21" d="M180.23,563.63a2.16,2.16,0,0,1-1.66,2.53h0a2.17,2.17,0,0,1-2.77-1.23l-3.06-10.48a2.15,2.15,0,0,1,1.66-2.52h0a2.16,2.16,0,0,1,2.77,1.23Z" transform="translate(0 -169.38)"/><g class="cls-10"><polygon class="cls-11" points="310 444.87 518.1 373.89 449.43 318.42 250.13 376.49 250.13 384.12 310 444.87"/></g><polygon class="cls-12" points="312 440.87 520.1 369.89 451.43 314.42 252.13 372.49 252.13 380.12 312 440.87"/><polygon class="cls-22" points="313.43 433.07 522.1 364.39 453.43 308.92 252.02 372.31 313.43 433.07"/><polygon class="cls-12" points="286.29 379.88 304.31 374.4 297.56 368.95 280.27 374.51 286.29 379.88"/><polygon class="cls-12" points="306.45 373.5 317 370.16 309.5 364.91 299.71 368 306.45 373.5"/><polygon class="cls-12" points="318.67 369.54 329.22 366.2 321.72 360.95 311.93 364.04 318.67 369.54"/><polygon class="cls-12" points="331.21 365.75 341.77 362.4 334.27 357.15 324.47 360.25 331.21 365.75"/><polygon class="cls-12" points="343.27 361.78 353.82 358.44 346.32 353.19 336.52 356.28 343.27 361.78"/><polygon class="cls-12" points="355.48 357.65 366.04 354.31 358.53 349.07 348.74 352.16 355.48 357.65"/><polygon class="cls-12" points="367.7 353.69 378.25 350.35 370.75 345.1 360.96 348.19 367.7 353.69"/><polygon class="cls-12" points="380.25 349.89 390.8 346.56 383.3 341.31 373.5 344.4 380.25 349.89"/><polygon class="cls-12" points="392.3 345.93 402.85 342.59 395.35 337.34 385.55 340.44 392.3 345.93"/><polygon class="cls-12" points="404.51 341.64 415.06 338.3 407.56 333.05 397.77 336.14 404.51 341.64"/><polygon class="cls-12" points="416.73 337.68 427.28 334.34 419.78 329.09 409.99 332.18 416.73 337.68"/><polygon class="cls-12" points="429.28 333.88 439.83 330.54 432.33 325.29 422.53 328.38 429.28 333.88"/><polygon class="cls-12" points="441.33 329.92 451.88 326.58 444.38 321.33 434.58 324.42 441.33 329.92"/><polygon class="cls-12" points="295.31 388.46 313.33 382.99 306.58 377.53 289.29 383.09 295.31 388.46"/><polygon class="cls-12" points="315.48 382.09 326.03 378.75 318.53 373.5 308.73 376.59 315.48 382.09"/><polygon class="cls-12" points="327.69 378.13 338.24 374.79 330.74 369.54 320.95 372.63 327.69 378.13"/><polygon class="cls-12" points="340.24 374.33 350.79 370.99 343.29 365.74 333.5 368.83 340.24 374.33"/><polygon class="cls-12" points="352.29 370.37 362.84 367.03 355.34 361.78 345.55 364.87 352.29 370.37"/><polygon class="cls-12" points="364.51 366.24 375.06 362.9 367.56 357.65 357.76 360.74 364.51 366.24"/><polygon class="cls-12" points="376.72 362.28 387.27 358.94 379.77 353.69 369.98 356.78 376.72 362.28"/><polygon class="cls-12" points="389.27 358.48 399.82 355.14 392.32 349.89 382.53 352.98 389.27 358.48"/><polygon class="cls-12" points="401.32 354.52 411.87 351.18 404.37 345.93 394.58 349.02 401.32 354.52"/><polygon class="cls-12" points="413.54 350.23 424.09 346.89 416.59 341.64 406.8 344.73 413.54 350.23"/><polygon class="cls-12" points="425.75 346.26 436.31 342.92 428.81 337.67 419.01 340.77 425.75 346.26"/><polygon class="cls-12" points="438.3 342.47 448.85 339.13 441.35 333.88 431.56 336.97 438.3 342.47"/><polygon class="cls-12" points="450.35 338.5 460.9 335.16 453.4 329.92 443.61 333.01 450.35 338.5"/><polygon class="cls-12" points="303.89 397.49 321.92 392.01 315.17 386.56 297.88 392.12 303.89 397.49"/><polygon class="cls-12" points="324.06 391.11 334.61 387.77 327.11 382.52 317.32 385.61 324.06 391.11"/><polygon class="cls-12" points="336.28 387.15 346.83 383.81 339.33 378.56 329.53 381.65 336.28 387.15"/><polygon class="cls-12" points="348.82 383.35 359.38 380.01 351.87 374.76 342.08 377.85 348.82 383.35"/><polygon class="cls-12" points="360.88 379.39 371.43 376.05 363.93 370.8 354.13 373.89 360.88 379.39"/><polygon class="cls-12" points="373.09 375.26 383.64 371.92 376.14 366.67 366.35 369.76 373.09 375.26"/><polygon class="cls-12" points="385.31 371.3 395.86 367.96 388.36 362.71 378.56 365.8 385.31 371.3"/><polygon class="cls-12" points="397.85 367.5 408.41 364.16 400.9 358.92 391.11 362.01 397.85 367.5"/><polygon class="cls-12" points="409.9 363.54 420.46 360.2 412.96 354.95 403.16 358.04 409.9 363.54"/><polygon class="cls-12" points="422.12 359.25 432.67 355.91 425.17 350.66 415.38 353.75 422.12 359.25"/><polygon class="cls-12" points="434.34 355.29 444.89 351.95 437.39 346.7 427.6 349.79 434.34 355.29"/><polygon class="cls-12" points="446.88 351.49 457.44 348.15 449.94 342.9 440.14 345.99 446.88 351.49"/><polygon class="cls-12" points="458.94 347.53 469.49 344.19 461.99 338.94 452.19 342.03 458.94 347.53"/><polygon class="cls-12" points="314.68 406.29 332.7 400.81 325.95 395.36 308.66 400.92 314.68 406.29"/><polygon class="cls-12" points="334.85 399.92 345.4 396.58 337.9 391.33 328.1 394.42 334.85 399.92"/><polygon class="cls-12" points="347.06 395.95 357.62 392.62 350.11 387.37 340.32 390.46 347.06 395.95"/><polygon class="cls-12" points="359.61 392.16 370.16 388.82 362.66 383.57 352.87 386.66 359.61 392.16"/><polygon class="cls-12" points="371.66 388.2 382.21 384.86 374.71 379.61 364.92 382.7 371.66 388.2"/><polygon class="cls-12" points="383.88 384.07 394.43 380.73 386.93 375.48 377.13 378.57 383.88 384.07"/><polygon class="cls-12" points="396.09 380.11 406.64 376.77 399.14 371.52 389.35 374.61 396.09 380.11"/><polygon class="cls-12" points="408.64 376.31 419.19 372.97 411.69 367.72 401.9 370.81 408.64 376.31"/><polygon class="cls-12" points="420.69 372.35 431.24 369.01 423.74 363.76 413.95 366.85 420.69 372.35"/><polygon class="cls-12" points="432.91 368.06 443.46 364.71 435.96 359.46 426.17 362.56 432.91 368.06"/><polygon class="cls-12" points="445.12 364.09 455.68 360.75 448.18 355.5 438.38 358.6 445.12 364.09"/><polygon class="cls-12" points="457.67 360.3 468.22 356.95 460.72 351.71 450.93 354.8 457.67 360.3"/><polygon class="cls-12" points="469.72 356.33 480.27 352.99 472.77 347.74 462.98 350.83 469.72 356.33"/><polygon class="cls-12" points="324.04 415.64 342.06 410.17 335.31 404.72 318.02 410.28 324.04 415.64"/><polygon class="cls-12" points="344.2 409.27 354.75 405.93 347.25 400.68 337.46 403.77 344.2 409.27"/><polygon class="cls-12" points="356.42 405.31 366.97 401.97 359.47 396.72 349.68 399.81 356.42 405.31"/><polygon class="cls-12" points="368.96 401.51 379.52 398.17 372.01 392.92 362.22 396.02 368.96 401.51"/><polygon class="cls-12" points="381.29 397.55 440.66 378.26 434.28 372.98 374.55 392.05 381.29 397.55"/><polygon class="cls-12" points="442.26 377.41 452.81 374.07 445.31 368.82 435.52 371.91 442.26 377.41"/><polygon class="cls-12" points="454.48 373.45 465.03 370.11 457.53 364.86 447.74 367.95 454.48 373.45"/><polygon class="cls-12" points="467.03 369.65 477.58 366.31 470.08 361.06 460.28 364.15 467.03 369.65"/><polygon class="cls-12" points="479.08 365.69 489.63 362.35 482.13 357.1 472.33 360.19 479.08 365.69"/><g class="cls-10"><rect x="209.84" y="299.88" width="139.07" height="54.87" transform="translate(-46.61 -123) rotate(-8.76)"/><polygon points="342.82 111.66 205.07 132.89 206.55 142.48 206.64 142.47 344.08 121.28 344.3 121.25 342.82 111.66"/></g><rect class="cls-23" x="211.91" y="297.81" width="139.07" height="54.87" transform="translate(-46.27 -122.71) rotate(-8.76)"/><polygon class="cls-24" points="344.89 109.59 207.15 130.82 208.62 140.41 208.71 140.4 346.15 119.21 346.37 119.18 344.89 109.59"/><rect class="cls-20" x="333.61" y="279.84" width="11.75" height="5.39" transform="translate(-39.08 -114.36) rotate(-8.76)"/><path class="cls-25" d="M338.64,284.33l-.76.11,1.4-1.92-1.8-1.34.79-.12,1.38,1.06,1-1.42.75-.12-1.31,1.82,1.89,1.41-.79.12-1.46-1.14Z" transform="translate(0 -169.38)"/><g class="cls-10"><path class="cls-11" d="M238.27,318.86a1.19,1.19,0,0,1,2.23-.35l8.38,10.43,2.82,3.53,8.38,10.42a1.2,1.2,0,0,1-.82,2.11L246,347l-4.46.69-13.22,2c-1.23.19-1.87-.6-1.42-1.76l4.85-12.46,1.64-4.21Z" transform="translate(0 -169.38)"/></g><path class="cls-26" d="M235.16,316.79a1.2,1.2,0,0,1,2.24-.35l8.37,10.43,2.83,3.53L257,340.82a1.2,1.2,0,0,1-.82,2.11l-13.21,2-4.47.69-13.22,2c-1.23.19-1.86-.6-1.41-1.76l4.84-12.46,1.64-4.22Z" transform="translate(0 -169.38)"/><path class="cls-27" d="M238.57,341.41c-.07-.22-.12-.43-.17-.65s-.09-.42-.13-.65-.06-.44-.08-.68,0-.46,0-.68l.64-.18c.21-.05.43-.09.65-.12s.45-.06.68-.08l.69,0c.07.22.12.44.17.66s.1.44.13.66.06.45.08.67,0,.45,0,.68l-.65.17-.67.13-.66.08ZM236,324.31c.2-.07.4-.12.6-.17l.6-.11c.22,0,.44-.06.67-.08s.45,0,.67,0l1.7,12a6.55,6.55,0,0,1-1.1.27,5.79,5.79,0,0,1-1.13.07Z" transform="translate(0 -169.38)"/><line class="cls-28" x1="264.61" y1="142.15" x2="313.56" y2="134.61"/><line class="cls-28" x1="265.36" y1="147.04" x2="336.99" y2="136"/><line class="cls-28" x1="266.03" y1="151.38" x2="337.66" y2="140.34"/><line class="cls-28" x1="266.7" y1="155.72" x2="338.33" y2="144.68"/><line class="cls-28" x1="267.37" y1="160.06" x2="338.99" y2="149.02"/><line class="cls-28" x1="268.04" y1="164.4" x2="339.66" y2="153.36"/><rect class="cls-29" x="269.72" y="337.2" width="20.03" height="7.51" transform="matrix(0.99, -0.15, 0.15, 0.99, -46.81, -124.85)"/><rect class="cls-29" x="293.19" y="333.75" width="20.03" height="7.51" transform="translate(-46.05 -121.46) rotate(-8.4)"/><g class="cls-10"><rect x="226.59" y="283.13" width="139.07" height="54.87" transform="translate(-43.86 -120.64) rotate(-8.76)"/><polygon points="359.57 94.91 221.82 116.14 223.3 125.73 223.39 125.72 360.83 104.53 361.05 104.5 359.57 94.91"/></g><rect class="cls-23" x="228.66" y="281.06" width="139.07" height="54.87" transform="translate(-43.52 -120.35) rotate(-8.76)"/><polygon class="cls-24" points="361.64 92.84 223.9 114.07 225.37 123.66 225.46 123.65 362.9 102.46 363.12 102.43 361.64 92.84"/><rect class="cls-20" x="350.36" y="263.09" width="11.75" height="5.39" transform="translate(-36.34 -112) rotate(-8.76)"/><path class="cls-25" d="M355.39,267.58l-.76.11,1.4-1.92-1.8-1.34.79-.12,1.38,1.06,1-1.42.75-.12-1.31,1.82,1.89,1.41-.79.12L356.47,266Z" transform="translate(0 -169.38)"/><g class="cls-10"><path class="cls-11" d="M255,302.11a1.19,1.19,0,0,1,2.23-.35l8.38,10.43,2.82,3.53,8.38,10.42a1.2,1.2,0,0,1-.82,2.11l-13.22,2-4.46.69-13.22,2c-1.23.19-1.87-.6-1.42-1.76l4.85-12.46,1.64-4.21Z" transform="translate(0 -169.38)"/></g><path class="cls-26" d="M251.91,300a1.2,1.2,0,0,1,2.24-.35l8.37,10.43,2.83,3.53,8.37,10.42a1.2,1.2,0,0,1-.82,2.11l-13.21,2-4.47.69-13.22,2c-1.23.19-1.86-.6-1.41-1.76l4.84-12.46,1.64-4.22Z" transform="translate(0 -169.38)"/><path class="cls-27" d="M255.32,324.66c-.07-.22-.12-.43-.17-.65s-.09-.42-.13-.65-.06-.44-.08-.68,0-.46,0-.68l.64-.18c.21-.05.43-.09.65-.12s.45-.06.68-.08l.69,0c.07.22.12.44.17.66s.1.44.13.66.06.45.08.67,0,.45,0,.68l-.65.17-.67.13-.66.08Zm-2.54-17.1c.2-.07.4-.12.6-.17l.6-.11c.22,0,.44-.06.67-.08s.45,0,.67,0l1.7,12a6.55,6.55,0,0,1-1.1.27,5.79,5.79,0,0,1-1.13.07Z" transform="translate(0 -169.38)"/><line class="cls-28" x1="281.36" y1="125.4" x2="330.31" y2="117.86"/><line class="cls-28" x1="282.11" y1="130.29" x2="353.74" y2="119.25"/><line class="cls-28" x1="282.78" y1="134.63" x2="354.41" y2="123.59"/><line class="cls-28" x1="283.45" y1="138.97" x2="355.08" y2="127.93"/><line class="cls-28" x1="284.12" y1="143.31" x2="355.74" y2="132.27"/><line class="cls-28" x1="284.79" y1="147.65" x2="356.41" y2="136.61"/><rect class="cls-29" x="286.47" y="320.45" width="20.03" height="7.51" transform="matrix(0.99, -0.15, 0.15, 0.99, -44.18, -122.59)"/><rect class="cls-29" x="309.94" y="317" width="20.03" height="7.51" transform="translate(-43.43 -119.2) rotate(-8.4)"/><g class="cls-10"><rect x="241.09" y="268.63" width="139.07" height="54.87" transform="translate(-41.48 -118.6) rotate(-8.76)"/><polygon points="374.07 80.41 236.32 101.64 237.8 111.23 237.89 111.22 375.33 90.03 375.55 90 374.07 80.41"/></g><rect class="cls-23" x="243.16" y="266.56" width="139.07" height="54.87" transform="translate(-41.14 -118.31) rotate(-8.76)"/><polygon class="cls-24" points="376.14 78.34 238.4 99.57 239.87 109.16 239.96 109.15 377.4 87.96 377.62 87.93 376.14 78.34"/><rect class="cls-20" x="364.86" y="248.59" width="11.75" height="5.39" transform="translate(-33.96 -109.96) rotate(-8.76)"/><path class="cls-25" d="M369.89,253.08l-.76.11,1.4-1.92-1.8-1.34.79-.12,1.38,1.06,1-1.42.75-.12-1.31,1.82,1.89,1.41-.79.12L371,251.54Z" transform="translate(0 -169.38)"/><g class="cls-10"><path class="cls-11" d="M269.52,287.61a1.19,1.19,0,0,1,2.23-.35l8.38,10.43,2.82,3.53,8.38,10.42a1.2,1.2,0,0,1-.82,2.11l-13.22,2-4.46.69-13.22,2c-1.23.19-1.87-.6-1.42-1.76L263,304.29l1.64-4.21Z" transform="translate(0 -169.38)"/></g><path class="cls-26" d="M266.41,285.54a1.2,1.2,0,0,1,2.24-.35L277,295.62l2.83,3.53,8.37,10.42a1.2,1.2,0,0,1-.82,2.11l-13.21,2-4.47.69-13.22,2c-1.23.19-1.86-.6-1.41-1.76l4.84-12.46,1.64-4.22Z" transform="translate(0 -169.38)"/><path class="cls-27" d="M269.82,310.16c-.07-.22-.12-.43-.17-.65s-.09-.42-.13-.65-.06-.44-.08-.68,0-.46,0-.68l.64-.18c.21-.05.43-.09.65-.12s.45-.06.68-.08l.69,0c.07.22.12.44.17.66s.1.44.13.66.06.45.08.67,0,.45,0,.68l-.65.17-.67.13-.66.08Zm-2.54-17.1c.2-.07.4-.12.6-.17l.6-.11c.22,0,.44-.06.67-.08s.45,0,.67,0l1.7,12a6.55,6.55,0,0,1-1.1.27,5.79,5.79,0,0,1-1.13.07Z" transform="translate(0 -169.38)"/><line class="cls-28" x1="295.86" y1="110.9" x2="344.81" y2="103.36"/><line class="cls-28" x1="296.61" y1="115.79" x2="368.24" y2="104.75"/><line class="cls-28" x1="297.28" y1="120.13" x2="368.91" y2="109.09"/><line class="cls-28" x1="297.95" y1="124.47" x2="369.58" y2="113.43"/><line class="cls-28" x1="298.62" y1="128.81" x2="370.24" y2="117.77"/><line class="cls-28" x1="299.29" y1="133.15" x2="370.91" y2="122.11"/><rect class="cls-29" x="300.97" y="305.95" width="20.03" height="7.51" transform="matrix(0.99, -0.15, 0.15, 0.99, -41.91, -120.62)"/><rect class="cls-29" x="324.44" y="302.5" width="20.03" height="7.51" transform="translate(-41.15 -117.23) rotate(-8.4)"/><path class="cls-30" d="M676.37,388.56c-3.33,17.37-10.26,35.92-22.79,54.9,9.79,11.5,15.72,19.79,15,22.32C664,483.2,541.77,536.42,516.76,543c-40.17,10.53-31.37,47.58-31.37,47.58,8.06,39.5,56.6,19.69,56.6,19.69s202.63-94.17,206.9-129.62C750.79,464.82,716.79,427.18,676.37,388.56Z" transform="translate(0 -169.38)"/><path class="cls-31" d="M667.2,296.13c-10.2-34.41-51.52-36.56-51.52-36.56C611.39,238.06,595.42,229.13,583,227c-81.58-14-118.42,20.07-148.72,20.73-49.38,1.07-57.09-12.18-57.09-12.18a49.4,49.4,0,0,0,3.14,38.86c-16.16-.68-20.45-12.41-20.45-12.41,6.53,31.61,21.44,52.28,39,65.77a69.89,69.89,0,0,0,7.35,5.45c14.43,9.41,47.23,24.7,97.8,14.15,0,0,.41,57.51,6.44,71.68,1.75,4.12,5.39,6.54,10,7.8v-.15c.56-13.11,10.49-23.34,22.2-22.84s20.74,11.53,20.19,24.64l-.34,7.92c-.55,13.11-10.49,23.34-22.2,22.84a19.23,19.23,0,0,1-8.44-2.37l-4.27,19.87,31.55,22.49,39.29-.93,2.15-.05c23.93-18.23,41-36.71,52.93-54.82,12.53-19,19.46-37.53,22.79-54.9C684.13,348.2,672.56,314.22,667.2,296.13Z" transform="translate(0 -169.38)"/><path class="cls-32" d="M527.66,476.77l4.27-19.87a19.23,19.23,0,0,0,8.44,2.37c11.71.5,21.65-9.73,22.2-22.84l.34-7.92c.55-13.11-8.49-24.14-20.19-24.64s-21.64,9.73-22.2,22.84v.15c-4.64-1.26-8.28-3.68-10-7.8-6-14.17-6.44-71.68-6.44-71.68-50.57,10.55-83.37-4.74-97.8-14.15-2,13.19-8,52.23-8.47,52.68,0,0-.41,2.24-1,5.75l-11.32,8.23c-9,7.12-12.69,8.25-11.27,13.44A15.49,15.49,0,0,0,376,416.2c6.35,5.25,8.91,5.38,15.79,6.94-.37,2.85-.66,5.35-.79,7.23a163,163,0,0,0,.15,23.19c-.14-3.39-.1-5.35-.1-5.35l4.75-.88c13.94-1.8,24.56.41,27.5,14.23,1.25,9.66-9,19-23,20.77l-3.67.64c2.67,8,6.4,15,11.56,20,14.23,13.62,37.51,19.77,64.76,19.54v16.66l88-5.37V523H598.5V498.33l-39.29.93ZM422.2,367.91,421,377.46a6.41,6.41,0,1,1-12.72-1.54l1.16-9.56a6.41,6.41,0,1,1,12.72,1.55Z" transform="translate(0 -169.38)"/><path class="cls-33" d="M423.26,461.56c-2.94-13.82-13.56-16-27.5-14.23l-4.75.88s0,2,.1,5.35.5,8.58,1.3,14.61A61.59,61.59,0,0,0,396.47,483l.13,0,3.67-.64C414.22,480.52,424.51,471.22,423.26,461.56Z" transform="translate(0 -169.38)"/><path d="M416.61,360.77a6.4,6.4,0,0,0-7.13,5.59l-1.16,9.56A6.41,6.41,0,1,0,421,377.46l1.16-9.55A6.41,6.41,0,0,0,416.61,360.77Z" transform="translate(0 -169.38)"/><path class="cls-34" d="M601.72,516.55c-5.71-3.81-109,10.24-129.88,19.36-26.15,11.39-34.21,64.61-34.21,64.61s-2.28,60.12-2.28,66.57V800H650C650.19,782.91,651.35,549.7,601.72,516.55Z" transform="translate(0 -169.38)"/><path class="cls-35" d="M419.06,316.48a20.33,20.33,0,0,1-28.48,4.19h0a20.42,20.42,0,0,1-4.19-28.54l16.94-22.81a20.34,20.34,0,0,1,28.49-4.19h0A20.42,20.42,0,0,1,436,293.67Z" transform="translate(0 -169.38)"/><path class="cls-35" d="M436,302c.94,2.56.13,5.21-1.81,5.93l-10.81,4c-1.94.72-4.27-.77-5.22-3.32h0c-.94-2.55-.13-5.21,1.81-5.93l10.81-4c1.94-.72,4.27.77,5.22,3.32Z" transform="translate(0 -169.38)"/><path class="cls-34" d="M522.9,595.46c7-20-4-47.89-48.91-58.48-27.49-6.47-159.06-38-160.33-55.8-1.61-22.58,107.87-167.74,107.87-167.74l-32.19-25.8S229.24,455.49,246,503.75C262.15,550,441.22,614.42,457.16,617.41,475.22,620.8,507.83,638.57,522.9,595.46Z" transform="translate(0 -169.38)"/><path class="cls-36" d="M737.85,759.88V658c0-67.71-36.16-137-113.27-137l-1.22.1C529.89,528.25,497.17,590.29,497.17,658v87.52c0,21.4-1.26,39.59,1.17,54.48H737.5C738.44,789.45,737.85,776.28,737.85,759.88Z" transform="translate(0 -169.38)"/><path class="cls-37" d="M726.81,800c9.5-15.7,6.23-38.89,6.23-69.8v-66c0-63.87-28.87-129.58-92.69-129.58h-4.3c-77.37,6.74-102.23,65.71-102.23,129.58v24.7c0,57.29-2,91.14,5.89,111.06Z" transform="translate(0 -169.38)"/><path class="cls-38" d="M672.32,799.84V749.42a31.44,31.44,0,0,0-62.88,0v50.42Z" transform="translate(0 -169.38)"/><path class="cls-12" d="M681.05,800V749.48a31.44,31.44,0,1,0-62.88,0V800Z" transform="translate(0 -169.38)"/></g></g></svg>