<svg id="OBJECTS" xmlns="http://www.w3.org/2000/svg" viewBox="0 0 453.71 429.2"><defs><style>.cls-1{fill:#fff;}.cls-2{fill:#bac5cc;}.cls-3{fill:#c0cbd2;}.cls-4{fill:#ffdabe;}.cls-5{fill:#1f646b;}.cls-6{fill:#131623;}.cls-7{fill:#1c2033;}.cls-8{fill:#2c7b89;}.cls-9{fill:#4e274b;}.cls-10{fill:#ff6e72;}.cls-11{fill:#28201a;}.cls-12{fill:#e5ad88;}.cls-13{fill:#51406a;}.cls-14{fill:#feeddb;}.cls-15{fill:#fffefc;}</style></defs><title>help-banner</title><polygon class="cls-1" points="56.81 200.18 130.97 232.3 384.11 198.32 56.81 200.18"/><polygon class="cls-2" points="123.93 314.89 123.93 345.52 384.11 198.32 123.93 314.89"/><polygon class="cls-3" points="56.81 200.18 118.17 242.14 118.17 261.92 130.97 242.14 384.11 198.32 130.97 232.3 56.81 200.18"/><path class="cls-4" d="M336.52,199.77a.67.67,0,0,0-.12-.35,2.46,2.46,0,0,0-1.82-1.07,3.58,3.58,0,0,0-1.21-.28,30.46,30.46,0,0,0-3.31,0,4.69,4.69,0,0,1-3.35-.64.74.74,0,0,0-1.11.5,23.42,23.42,0,0,0-2,1.49,3,3,0,0,0-.55.62.71.71,0,0,0-.5,1.25q.22.17.45.3a.94.94,0,0,0,.85.78l.15,0a4.76,4.76,0,0,0,2.39-.06l9.58-1.64A.69.69,0,0,0,336.52,199.77Z" transform="translate(-29.54 -20.49)"/><path class="cls-5" d="M322.19,201.89a.61.61,0,0,0,.78,0h0c2.09-1.16,4.08-2.4,5.19-4.6a.56.56,0,0,0,.05-.41.68.68,0,0,0-.15-.49,44.94,44.94,0,0,0-3.1-3.51l0,0c-4.81-6.57-11.44-11.53-16.35-18.09-.53-.72-1.58.2-1.05.91l2.07,14.48Z" transform="translate(-29.54 -20.49)"/><path class="cls-4" d="M281.27,245.81c-.71-.8-1.24-3.47-1.35-3.51,0-.3.14-1.64.14-1.64q-2.62.66-5.23,1.36a2.63,2.63,0,0,1-.5.29c-.14,1.28-.52,3.9.78,4.78a.24.24,0,0,0,.22.08C277.52,246.79,281.47,245.77,281.27,245.81Z" transform="translate(-29.54 -20.49)"/><path class="cls-4" d="M342.63,236.85q0-3.42-.09-6.84s-5.63.47-5.61.83c.11,1.86.24,3.71.39,5.56a.45.45,0,0,0,.06.12.27.27,0,0,0,.14.43c1.28.39,3.87,1.27,5,.11l0,0a.34.34,0,0,0,.07-.15S342.63,236.87,342.63,236.85Z" transform="translate(-29.54 -20.49)"/><path class="cls-6" d="M346.35,207.67c0-.48,0-1-.08-1.45,0-2-.38-3.93-1.95-5.1-2.54-1.9-7.21-.73-10-.4-7,.83-13.94,2.05-20.83,3.57-.35.08-.33,2-.12,3.12.07.35.71,6.19.72,6.25.32,1.79.19,4.38.54,4.51-1.16.27,11.61-2.08,19.12-3.81-.55,6,2.5,17.76,2.58,17.77a9.7,9.7,0,0,0,2,.81,6.36,6.36,0,0,0,2.13.12,2.67,2.67,0,0,0,2.44-1.17h0a.29.29,0,0,0,.15-.19,154.73,154.73,0,0,0,2.47-16.13c.08-.5.18-1,.31-1.51a1.41,1.41,0,0,0,0-.54A19.37,19.37,0,0,0,346.35,207.67ZM334.3,220.93h0v0Z" transform="translate(-29.54 -20.49)"/><path class="cls-7" d="M317.85,237c-1-10.67-2.33-21.28-3.94-31.87,0-.53-.3-2-.31-2.05,0-.28-15.77,2.26-15.74,2.45s.08.36.11.54a16.61,16.61,0,0,0,.36,1.75q2.09,10.53,4.58,21s0,.05,0,.08a1.25,1.25,0,0,0,.07.26c.18.78.37,1.56.56,2.34-6.48,1.44-12.86,2.95-18.84,5.61a2.57,2.57,0,0,0-.75.34,45.13,45.13,0,0,0-5.68,3.13.23.23,0,0,0-.11.26s-.05,0-.05.1c-.09,2.49,1.09,6.23,4.09,5.73l1.58-.1a5.7,5.7,0,0,0,1.64-.09,122.74,122.74,0,0,0,23.11-3.22c.66-.17,1.5-.37,2.39-.63a5.33,5.33,0,0,0,2.14-.69C315.58,241,317.89,239.47,317.85,237Z" transform="translate(-29.54 -20.49)"/><path d="M280.89,253.63a2.48,2.48,0,0,0-2.49-2.16c-.74,0-1.65.46-2.37.24-1.42-.44-.66-4.55-.75-4.67-1-1.37-.72-3.52-.5-5.11h0v-.07s0,0,0-.05c-.14-.82-1.19-.89-1.86-1a9.32,9.32,0,0,0-3.49.17.26.26,0,0,0-.46.06c-1.3,4.27-2.13,10.81.71,14.68a.22.22,0,0,0,.24.1.22.22,0,0,0,.19.14A17.8,17.8,0,0,0,280.65,254a.28.28,0,0,0,.13-.16A.27.27,0,0,0,280.89,253.63Z" transform="translate(-29.54 -20.49)"/><path d="M352.21,240.05c-1.56-.14-3.07.11-4.62.12a3.94,3.94,0,0,1-3.49-1.42,18.46,18.46,0,0,1-1.18-1.88.25.25,0,0,0-.38-.06h0a13.51,13.51,0,0,1-4.95-.3.24.24,0,0,0-.3.23.29.29,0,0,0-.19.21,20.25,20.25,0,0,0-.12,7.91.3.3,0,0,0,.48.17l.06,0a51.93,51.93,0,0,0,18-2.13c.08,0,.51-.2.5-.42C356,240.49,353.88,240.2,352.21,240.05Z" transform="translate(-29.54 -20.49)"/><path class="cls-7" d="M311,130.39c-.81-2.65-3.75-5.67-6.7-5-2.2.5-3.54,3-5.6,3.76-2.59,1-5.65-.55-8.35.3a8.36,8.36,0,0,0-5.51,5.95c-.06,0-.12-.12-.19-.17a1.89,1.89,0,0,0-2.21,0c-.72.53.14,1.62.86,1.09.32-.23.59,0,.79.27-4.79,3.24-5.91,9-3.91,14.49,2.42,6.73,8.41,8.31,14.92,7.8a.56.56,0,0,0,.55-.45s.07,0,.1-.08c2.45-2.91,3.41-6.65,5.49-9.8.95-1.42,2-2.75,2.9-4.21,1.24-2.07,1.6-4.42,3.72-5.91a.58.58,0,0,0,.24-.34C310.15,136,311.91,133.44,311,130.39Z" transform="translate(-29.54 -20.49)"/><path class="cls-4" d="M352,137.5c.11-.76-.62-1.2-1.73-.85-1.95.61-3.91,2.57-5.58,3.72l-6.85,4.71-.05,0a.35.35,0,0,0-.31.39c.07.62.83,5.52,1.53,5.47a.37.37,0,0,0,.28-.22v0a6.92,6.92,0,0,1,2.94-1,16.23,16.23,0,0,0,2,.57c1,.06,3-1.74,3.22-2.06a2.31,2.31,0,0,0,1-2.5c0-.36-.53-1.79-.61-2.43a9.47,9.47,0,0,0-.66-1.65c1.44-.89,4.2-3.07,4.27-3.15S352,137.64,352,137.5Zm-6.77,4.87a0,0,0,0,1,0,0h0Zm2-1.61h0Z" transform="translate(-29.54 -20.49)"/><path class="cls-4" d="M309.86,150.31c-1.11-4.27-2.26-8.52-3.39-12.79h0a.87.87,0,0,0-.08-.26s0-.08,0-.12a.23.23,0,0,0-.2-.21.41.41,0,0,0-.63.08c0,.05-.07.11-.11.17a14.32,14.32,0,0,1-4.27,3.21c-.76.37-1.82.51-2.34,1.25-.21.3-.11.68-.18,1-.56,2.69,1,4.89-2.22,6.78a.28.28,0,0,0-.16.3l.54,2.25a.18.18,0,0,0-.1,0l-.28.13s-.07,0-.11,0a.84.84,0,0,1-.34,0c-.12-.26-.25-.52-.39-.77,0,0,0,0,0,0a3.07,3.07,0,0,0-.24-.62l0-.07a.24.24,0,0,0,0-.16c-1.25-2.44-5.59-4.21-7.24-1.11-1.94,3.64,3.17,6.94,5.78,8.24a.2.2,0,0,0,.13,0h0a1.06,1.06,0,0,0,.34.12,36.09,36.09,0,0,1,1,3.83s0,.05,0,.08a17.36,17.36,0,0,0,.53,2.58s0,0,0,0c0,.3.07.59.11.88,0,0,0,0,0,.05l0,.2h0a.23.23,0,0,0,.13.36,12.75,12.75,0,0,0,5.07.33.25.25,0,0,0,.22-.32l.1,0,0,0c.1.29.6.16.53-.15s-.23-.9-.35-1.35c-.12-.85-.25-1.7-.38-2.56,3.62-.72,7.4-2.47,8.87-5C311.38,154.81,310.38,152.32,309.86,150.31Zm-11.17-2.55,0,0S298.7,147.68,298.69,147.76Z" transform="translate(-29.54 -20.49)"/><path class="cls-8" d="M340.44,151.73a18.88,18.88,0,0,0-2.32-5.91c0-.49-.39-1-.91-.66Q319.47,155.63,301.68,166a17.8,17.8,0,0,0-6.83-1.25.66.66,0,0,0-.55.24.7.7,0,0,0-.31.05c-5,2-3.5,8.86-3.17,13.15.66,8.67,4.24,16.76,4.67,25.45h0a.67.67,0,0,0,.16,1.15c6.1,2.21,14.71,1.6,19.85-2.54a.66.66,0,0,0,0-1,.85.85,0,0,0,0-.23,111.83,111.83,0,0,0-5.18-21.9c.11-.17-2-5.23-2.17-5.66s-.29-.65-.44-1q16.22-9.65,32-20A.62.62,0,0,0,340.44,151.73Z" transform="translate(-29.54 -20.49)"/><path class="cls-5" d="M299.88,177l7.87-4.14c.32-.16,0-.65-.28-.48l-7.87,4.14c-.32.17,0,.65.28.48Z" transform="translate(-29.54 -20.49)"/><path class="cls-9" d="M247.52,182.87c-8.18-9.11-24.58-4.8-29,6-2.5,6.19-2.49,13.3-2.46,19.87,0,9.32,1.31,18.37,5.74,26.66a.31.31,0,0,0,.55,0l.62.09a3.65,3.65,0,0,0,.59.08c3.43.36,7.19.49,9.95-1.68,4.82-3.79,4.27-15.11,4.41-15.29.45-.31.78-12.16,7.7-24.4C249.71,190.34,250.5,187,247.52,182.87Z" transform="translate(-29.54 -20.49)"/><path class="cls-4" d="M252.06,202.23c-1.09-4.38-3.45-13.48-3.44-13.53-.17-.65-.92,0-1,0a14.68,14.68,0,0,1-4.41,3.24c-.78.37-2.37.94-2.59,2.31-.44,2.78,1,5-2.34,6.92a.28.28,0,0,0-.17.3c.17.76.35,1.52.53,2.29,0,0-.75.18-.85.17-.12-.27-.65-1.62-.68-1.68-1.26-2.51-5.68-4.37-7.4-1.21-2,3.7,3.17,7.12,5.82,8.48a4.32,4.32,0,0,0,.51.17c.41,1.3,1.66,7.8,1.66,7.86l.14.38c1.71.48,6.15.26,6.08-.05s-.58-3.13-.7-4c3.7-.7,7.58-2.46,9.11-5C253.57,206.84,252.57,204.28,252.06,202.23Z" transform="translate(-29.54 -20.49)"/><path class="cls-10" d="M254.79,256.49c0-.07-1.1-16.8-3-27.83-2.05-7.78-5.55-11-12.56-12.13a6.53,6.53,0,0,0-1.26.22c-5.31,1.27-4.49,8.41-4.79,12.8-.6,8.87,1.84,17.58,1,26.44h0a.68.68,0,0,0,0,1.19c5.85,3.13,14.66,3.77,20.46.32A.67.67,0,0,0,254.79,256.49Z" transform="translate(-29.54 -20.49)"/><path class="cls-11" d="M197.89,195a4.05,4.05,0,0,0-1.41-.63,1.19,1.19,0,0,0-.09-.15,4.25,4.25,0,0,0-4.33-1.57,4.79,4.79,0,0,0-1.19.48,4.91,4.91,0,0,0-3.92-3.23h-.27a4.17,4.17,0,0,0-2.54-.14,2.76,2.76,0,0,0-3.12.94c-.13-.07-.26-.15-.4-.21-3.21-1.4-6.79,1.27-7.21,4.48l-.48,0c-3.26.14-4.93,3-5,5.92a4,4,0,0,0-.48.08,3.22,3.22,0,0,0-2.28,4.63,4.39,4.39,0,0,0,.77,1.09c0,.1-.07.21-.1.32a5.72,5.72,0,0,0-.73,1.22,7.22,7.22,0,0,0,.87,6.79,4.73,4.73,0,0,0,.11,3.44,9.07,9.07,0,0,0,7.22,5.21,5.09,5.09,0,0,0,.78,0,4.49,4.49,0,0,0,2.61,4.76,4.25,4.25,0,0,0,1.09.32,7.19,7.19,0,0,0,4.84,0c3.52-1,3.43-5.61,3.47-5.68.7-1.37,2-4.52,3.39-5.86,2.47-2.37,9.78-13,10.55-14.39C201.22,200.61,199.9,196.41,197.89,195Z" transform="translate(-29.54 -20.49)"/><path class="cls-12" d="M199.84,215.73c-1.08-4.37-3.44-13.47-3.44-13.52-.16-.65-.92,0-1,0a14.68,14.68,0,0,1-4.41,3.24c-.78.36-2.38.94-2.6,2.31-.44,2.78,1,5-2.34,6.92a.3.3,0,0,0-.17.3l.54,2.29s-.76.18-.86.17c-.11-.27-.65-1.63-.68-1.68-1.26-2.51-5.67-4.37-7.4-1.22-2,3.7,3.18,7.13,5.83,8.49a4.32,4.32,0,0,0,.51.17c.41,1.3,1.65,7.79,1.66,7.86l.13.38c1.71.48,6.15.26,6.08,0-.1-.46-.58-3.13-.7-4,3.71-.71,7.59-2.46,9.12-5.05C201.35,220.35,200.35,217.79,199.84,215.73Z" transform="translate(-29.54 -20.49)"/><path class="cls-13" d="M202.57,270c0-.07-1.1-16.8-3-27.83-2.06-7.79-5.55-11-12.57-12.13a6.08,6.08,0,0,0-1.26.22c-5.3,1.27-4.49,8.41-4.78,12.8-.6,8.87,1.84,17.58,1,26.44h0a.68.68,0,0,0,0,1.19c5.85,3.12,14.65,3.76,20.46.32A.67.67,0,0,0,202.57,270Z" transform="translate(-29.54 -20.49)"/><polygon class="cls-1" points="384.11 198.32 67.57 340.14 130.97 242.14 384.11 198.32"/><circle class="cls-14" cx="68.46" cy="70.75" r="56.11"/><path class="cls-15" d="M470.47,358c-4.82-3.31-10.69-3.7-16.31-3.38-.59,0-3.26.76-4,.25-4-16.2-23.05-20.61-35.52-13.23-1.06.63-3.32,2.19-3.38,2.24a37.34,37.34,0,0,1-3.54-4.16C403.29,330.59,400,320.78,391,315c-12.25-7.82-28.41-3.51-36.81,7.77a33.68,33.68,0,0,0-6.4,18.32c-.39.07-8.11.25-11.56,1.1-13.76,3.42-17.86,17.8-17.86,30.33,0,4.64,8.13,12.47,16.94,12.43A709.27,709.27,0,0,0,468.49,380c5.36-.7,10-4.09,10-10C478.49,366.87,475.63,361.5,470.47,358Zm-59.58-13.8c-1,.82-.6.23,0,0Z" transform="translate(-29.54 -20.49)"/><path class="cls-15" d="M130.06,433c.1-8.17-5.83-16.18-13.9-18.13a17.21,17.21,0,0,0-12.24,1.78c-3.46-8.63-9.77-16-19.53-17.79-6-1.12-15.33.22-15.89.38-7.8,2.2-13.62,9.49-15.89,16.4l-.38.84a17.76,17.76,0,0,0-11.1.13c-5.81,2.13-12.75,8.87-11.42,18.38a2.44,2.44,0,0,1,0,.27c.14,3.25,6.16,14.11,13,14.1.79,0,68.3.74,76.9,0C128,448.64,132.57,438.66,130.06,433Z" transform="translate(-29.54 -20.49)"/><path class="cls-15" d="M476.53,94.55c.36-10.08-6.89-20-16.81-22.35a22.63,22.63,0,0,0-14.18,1.37c-.31-1.92-1.91-17.82-3.67-23.74-3.54-11.91-15.21-22.41-28.32-18.13-11.57,3.77-16.71,18.33-19.3,29a65,65,0,0,0-1.32,8.61,20.72,20.72,0,0,0-8.24-3.06c-13.11-1.87-22.82,9.16-22.25,21.33l-10.34,1.3c-5.36.68-13.27,2.61-14.4,9.78-.68,9.15,1.82,17.76,11.57,17.33,9.47-.43,47.76-1.9,57-2.81,22.32-.58,44.65-.49,67,.56,5.4.25,10-4.78,10-10C483.25,99,480.38,96,476.53,94.55Z" transform="translate(-29.54 -20.49)"/><text x="-29.54" y="-20.49"></text><text x="-29.54" y="-20.49"></text><text x="-29.54" y="-20.49"></text></svg>