<svg xmlns="http://www.w3.org/2000/svg" xmlns:xlink="http://www.w3.org/1999/xlink" x="0px" y="0px"
  viewBox="0 0 300 300" style="enable-background:new 0 0 300 300;" xml:space="preserve">
  <defs>
    <style>
      .cls-1 {fill: #fbfaf9;}
      .cls-2 {fill: #494948;}
      .cls-3 {fill: url(#linear-gradient);}
      .cls-4 {fill: #666665;}
      .cls-5 {fill: #047870;}
      .cls-6 {fill: #6898ae;}
      .cls-7 {fill: url(#linear-gradient-2);}
      .cls-8 {fill: url(#linear-gradient-3);}
      .cls-9 {fill: url(#linear-gradient-4);}
      .cls-10 {fill: url(#linear-gradient-5);}
      .cls-11 {fill: url(#linear-gradient-6);}
      .cls-12 {fill: url(#linear-gradient-7);}
      .cls-13 {fill: url(#linear-gradient-8);}
      .cls-14 {fill: #323231;}
      .cls-15 {fill: url(#linear-gradient-9);}
      .cls-16 {fill: url(#linear-gradient-10);}

      @keyframes box-item {
        0%, 50% {
          transform: none;
        }
        25% {
          transform: scale(0.2, 1);
        }
      }
      .box-item1 {
        animation: box-item 5000ms ease-in-out infinite;
        transform-origin: 113.46px 0;
      }
      .box-item2 {
        animation: box-item 6000ms ease-in-out -5000ms infinite;
        transform-origin: 153.66px 0;
      }
      .box-item3 {
        animation: box-item 4000ms ease-in-out -1400ms infinite;
        transform-origin: 113.46px 0;
      }
      .box-item4 {
        animation: box-item 6100ms ease-in-out -2400ms infinite;
        transform-origin: 153.66px 0;
      }
      .box-item5 {
        animation: box-item 5000ms ease-in-out -700ms infinite;
        transform-origin: 113.46px 0;
      }

      @keyframes cursor {
        25%, 30% {
          transform: translate(-70px, -35px) rotate(75deg);
        }
        70% {
          transform: none;
        }
      }
      .cursor {
        animation: cursor 7000ms ease-in-out -4000ms infinite;
        transform-origin: 134.7px 217.28px;
      }

      @keyframes dots {
        from {
          transform: translateX(10px);
        }
      }
      .dots {
        animation: dots 6000ms ease-in-out -3000ms alternate infinite;
      }

      @keyframes square1 {
        0%, 50% {
          transform: none;
        }
        25% {
          transform: scale(0.3, 1);
        }
      }
      .square1 {
        animation: square1 6000ms ease-in-out -1000ms infinite;
        transform-origin: 76.59px 185px;
      }

      @keyframes square2 {
        0%, 50% {
          transform: none;
        }
        25% {
          transform: scale(0.5);
        }
      }
      .square2 {
        animation: square2 3000ms ease-in-out -2000ms infinite;
        transform-origin: 115.265px 176.255px;
      }
    </style>
    <linearGradient id="linear-gradient" x1="168.78" y1="54.91" x2="168.78" y2="242.32" gradientTransform="translate(337.56 297.23) rotate(-180)"
      gradientUnits="userSpaceOnUse">
      <stop offset="0" stop-color="#666665" />
      <stop offset="0.4" stop-color="#636362" />
      <stop offset="0.72" stop-color="#595958" />
      <stop offset="1" stop-color="#494948" />
    </linearGradient>
    <linearGradient id="linear-gradient-2" x1="139.49" y1="43.14" x2="198.07" y2="101.71" gradientUnits="userSpaceOnUse">
      <stop offset="0" stop-color="#1dc97f" />
      <stop offset="0.19" stop-color="#1bc37e" />
      <stop offset="0.45" stop-color="#16b37b" />
      <stop offset="0.73" stop-color="#0e9876" />
      <stop offset="1" stop-color="#047870" />
    </linearGradient>
    <linearGradient id="linear-gradient-3" x1="120.26" y1="89.95" x2="140.36" y2="110.05" xlink:href="#linear-gradient-2"
    />
    <linearGradient id="linear-gradient-4" x1="120.26" y1="127.28" x2="140.36" y2="147.38" xlink:href="#linear-gradient-2"
    />
    <linearGradient id="linear-gradient-5" x1="139.49" y1="126.28" x2="198.07" y2="184.85" xlink:href="#linear-gradient-2"
    />
    <linearGradient id="linear-gradient-6" x1="138.24" y1="178.64" x2="194.32" y2="234.72" xlink:href="#linear-gradient-2"
    />
    <linearGradient id="linear-gradient-7" x1="120.26" y1="173.09" x2="140.36" y2="193.19" xlink:href="#linear-gradient-2"
    />
    <linearGradient id="linear-gradient-8" x1="97.65" y1="159.33" x2="97.65" y2="242.32" gradientUnits="userSpaceOnUse">
      <stop offset="0" stop-color="#666665" />
      <stop offset="0.26" stop-color="#5f5f5e" />
      <stop offset="0.62" stop-color="#4d4d4c" />
      <stop offset="1" stop-color="#323231" />
    </linearGradient>
    <linearGradient id="linear-gradient-9" x1="79.52" y1="182.07" x2="115.78" y2="218.32" gradientTransform="translate(297.85 102.55) rotate(90)"
      xlink:href="#linear-gradient-2" />
    <linearGradient id="linear-gradient-10" x1="140.31" y1="222.95" x2="167.59" y2="250.23" xlink:href="#linear-gradient-2"
    />
  </defs>

  <g class="dots">
    <ellipse class="cls-1" cx="13.05" cy="103.44" rx="1.8" ry="1.72" />
    <ellipse class="cls-1" cx="13.05" cy="113.78" rx="1.8" ry="1.72" />
    <ellipse class="cls-1" cx="13.05" cy="124.12" rx="1.8" ry="1.72" />
    <ellipse class="cls-1" cx="34.68" cy="103.44" rx="1.8" ry="1.72" />
    <ellipse class="cls-1" cx="34.68" cy="113.78" rx="1.8" ry="1.72" />
    <ellipse class="cls-1" cx="34.68" cy="124.12" rx="1.8" ry="1.72" />
    <ellipse class="cls-1" cx="23.86" cy="103.44" rx="1.8" ry="1.72" />
    <ellipse class="cls-1" cx="23.86" cy="113.78" rx="1.8" ry="1.72" />
    <ellipse class="cls-1" cx="23.86" cy="124.12" rx="1.8" ry="1.72" />
    <ellipse class="cls-1" cx="56.3" cy="103.44" rx="1.8" ry="1.72" />
    <ellipse class="cls-1" cx="56.3" cy="113.78" rx="1.8" ry="1.72" />
    <ellipse class="cls-1" cx="56.3" cy="124.12" rx="1.8" ry="1.72" />
    <ellipse class="cls-1" cx="45.49" cy="103.44" rx="1.8" ry="1.72" />
    <ellipse class="cls-1" cx="45.49" cy="113.78" rx="1.8" ry="1.72" />
    <ellipse class="cls-1" cx="45.49" cy="124.12" rx="1.8" ry="1.72" />
    <ellipse class="cls-1" cx="77.93" cy="103.44" rx="1.8" ry="1.72" />
    <ellipse class="cls-1" cx="77.93" cy="113.78" rx="1.8" ry="1.72" />
    <ellipse class="cls-1" cx="77.93" cy="124.12" rx="1.8" ry="1.72" />
    <ellipse class="cls-1" cx="67.11" cy="103.44" rx="1.8" ry="1.72" />
    <ellipse class="cls-1" cx="67.11" cy="113.78" rx="1.8" ry="1.72" />
    <ellipse class="cls-1" cx="67.11" cy="124.12" rx="1.8" ry="1.72" />
    <ellipse class="cls-1" cx="99.55" cy="103.44" rx="1.8" ry="1.72" />
    <ellipse class="cls-1" cx="99.55" cy="113.78" rx="1.8" ry="1.72" />
    <ellipse class="cls-1" cx="99.55" cy="124.12" rx="1.8" ry="1.72" />
    <ellipse class="cls-1" cx="88.74" cy="103.44" rx="1.8" ry="1.72" />
    <ellipse class="cls-1" cx="88.74" cy="113.78" rx="1.8" ry="1.72" />
    <ellipse class="cls-1" cx="88.74" cy="124.12" rx="1.8" ry="1.72" />
    <ellipse class="cls-1" cx="121.17" cy="103.44" rx="1.8" ry="1.72" />
    <ellipse class="cls-1" cx="121.17" cy="113.78" rx="1.8" ry="1.72" />
    <ellipse class="cls-1" cx="121.17" cy="124.12" rx="1.8" ry="1.72" />
    <ellipse class="cls-1" cx="110.36" cy="103.44" rx="1.8" ry="1.72" />
    <ellipse class="cls-1" cx="110.36" cy="113.78" rx="1.8" ry="1.72" />
    <ellipse class="cls-1" cx="110.36" cy="124.12" rx="1.8" ry="1.72" />
    <ellipse class="cls-1" cx="142.8" cy="103.44" rx="1.8" ry="1.72" />
    <ellipse class="cls-1" cx="142.8" cy="113.78" rx="1.8" ry="1.72" />
    <ellipse class="cls-1" cx="142.8" cy="124.12" rx="1.8" ry="1.72" />
    <ellipse class="cls-1" cx="131.99" cy="103.44" rx="1.8" ry="1.72" />
    <ellipse class="cls-1" cx="131.99" cy="113.78" rx="1.8" ry="1.72" />
    <ellipse class="cls-1" cx="131.99" cy="124.12" rx="1.8" ry="1.72" />
  </g>

  <path class="cls-2" d="M100.41,44.12H237.15a3.6,3.6,0,0,1,3.6,3.6v7.2a0,0,0,0,1,0,0H96.81a0,0,0,0,1,0,0v-7.2A3.6,3.6,0,0,1,100.41,44.12Z"
  />
  <path class="cls-3" d="M101.44,54.91H236.12a4.63,4.63,0,0,1,4.63,4.63V242.32a0,0,0,0,1,0,0H96.81a0,0,0,0,1,0,0V59.54A4.63,4.63,0,0,1,101.44,54.91Z" transform="translate(337.56 297.23) rotate(180)" />
  <circle class="cls-4" cx="103.74" cy="49.51" r="1.36" />
  <circle class="cls-4" cx="110.06" cy="49.51" r="1.36" />
  <circle class="cls-4" cx="116.37" cy="49.51" r="1.36" />
  
  <rect class="cls-5" x="113.46" y="82.96" width="65.31" height="6.5" />
  <rect class="cls-6" x="113.46" y="120.29" width="36.66" height="6.5" />
  <rect class="cls-1" x="159.12" y="120.29" width="6.5" height="6.5" />
  <rect class="cls-1" x="200.62" y="134.08" width="6.5" height="6.5" />
  <rect class="cls-6 box-item2" x="153.66" y="96.75" width="50.22" height="6.5" />
  <rect class="cls-5" x="113.46" y="166.1" width="65.31" height="6.5" />
  <rect class="cls-7 box-item1" x="113.46" y="69.17" width="110.64" height="6.5" />
  <rect class="cls-8" x="113.46" y="96.75" width="33.7" height="6.5" />
  <rect class="cls-9" x="113.46" y="134.08" width="33.7" height="6.5" />
  <rect class="cls-10 box-item3" x="113.46" y="152.31" width="110.64" height="6.5" />
  <rect class="cls-11 box-item5" x="113.46" y="203.43" width="105.65" height="6.5" />
  <rect class="cls-12" x="113.46" y="179.89" width="33.7" height="6.5" />
  <rect class="cls-6 box-item4" x="153.66" y="179.89" width="50.22" height="6.5" />

  <!-- laptop -->
  <path class="cls-2" d="M48.86,152.07h97.59a9.65,9.65,0,0,1,9.65,9.65v70.64a0,0,0,0,1,0,0H39.21a0,0,0,0,1,0,0V161.72A9.65,9.65,0,0,1,48.86,152.07Z" />
  <rect class="cls-13" x="46.47" y="159.33" width="102.36" height="82.99" />
  <path class="cls-2" d="M108.32,232.36a3.19,3.19,0,0,1-3.19,3.19h-15A3.19,3.19,0,0,1,87,232.36H24.51v2.7a7.26,7.26,0,0,0,7.26,7.26H163.53a7.26,7.26,0,0,0,7.26-7.26v-2.7Z" />
  <circle class="cls-14" cx="97.65" cy="155.86" r="1.38" />

  <!-- green rect -->
  <rect class="cls-15 square1" x="76.59" y="185" width="42.12" height="30.39" />

  <!-- white rect -->
  <rect class="cls-1 square2" x="111.83" y="172.82" width="6.87" height="6.87" />

  <!-- pointer -->
  <g class="cursor">
    <path class="cls-16" d="M154,255.88a19.3,19.3,0,1,1,19.3-19.3A19.32,19.32,0,0,1,154,255.88Zm0-36.78a17.48,17.48,0,1,0,17.48,17.48A17.5,17.5,0,0,0,154,219.11Z" />
    <polygon class="cls-1" points="162.84 233.06 145.06 227.7 150.43 245.47 153.45 239.39 159.27 245.21 162.57 241.9 156.75 236.08 162.84 233.06" />
  </g>
</svg>