<svg id="objects" xmlns="http://www.w3.org/2000/svg" viewBox="0 0 436.48 289.99"><defs><style>.cls-1{fill:#e89e46;}.cls-2{opacity:0.1;}.cls-12,.cls-3{opacity:0.2;}.cls-12,.cls-4{fill:#fff;}.cls-5{fill:#ffb752;}.cls-6{fill:#565656;}.cls-7{fill:none;stroke:#ffb752;stroke-miterlimit:10;stroke-width:5px;}.cls-8{fill:#fffcf4;}.cls-9{fill:#c9c9c9;}.cls-10{fill:#ff7748;}.cls-11{fill:#c4553b;}.cls-13{fill:#ea6565;}.cls-14{fill:#79afb5;}</style></defs><title>283636-P6REY1-672</title><rect class="cls-1" x="36.5" y="141.46" width="11.99" height="15.58"/><ellipse class="cls-2" cx="218.24" cy="270.84" rx="218.24" ry="19.14"/><g class="cls-3"><path class="cls-4" d="M263.07,125.64c68.32,11.65,109.28,55.81,107.28,115.44.53,24.27-10.12,48.66-30.11,68.89-24.43,24.73-58.62,39.67-89.74,39.35a100.5,100.5,0,0,1-71.82-24.51C154,303.63,138.47,271.33,136,236.19l-.09-2c-.56-29.12,9.11-54.74,28-74.1,21.71-22.3,54.55-34.72,92.48-35Z" transform="translate(-32.6 -125.1)"/></g><path class="cls-1" d="M427.47,389.29H421.3V239.75a22.61,22.61,0,0,0-22.59-22.58H109.23a22.61,22.61,0,0,0-22.59,22.58v147H80.47v-147A28.79,28.79,0,0,1,109.23,211H398.71a28.79,28.79,0,0,1,28.76,28.75Z" transform="translate(-32.6 -125.1)"/><rect class="cls-5" x="77.46" y="86.43" width="3.62" height="125.15"/><rect class="cls-5" x="116.55" y="86.43" width="3.62" height="125.15"/><rect class="cls-5" x="155.64" y="86.43" width="3.62" height="125.15"/><rect class="cls-5" x="194.73" y="86.43" width="3.62" height="125.15"/><rect class="cls-5" x="233.82" y="86.43" width="3.62" height="125.15"/><rect class="cls-5" x="272.92" y="86.43" width="3.62" height="125.15"/><rect class="cls-5" x="312.01" y="86.43" width="3.62" height="125.15"/><rect class="cls-5" x="351.1" y="86.43" width="3.62" height="125.15"/><rect class="cls-1" x="80.02" y="86.43" width="3.62" height="125.15"/><rect class="cls-1" x="119.11" y="86.43" width="3.62" height="125.15"/><rect class="cls-1" x="158.2" y="86.43" width="3.62" height="125.15"/><rect class="cls-1" x="197.29" y="86.43" width="3.62" height="125.15"/><rect class="cls-1" x="236.38" y="86.43" width="3.62" height="125.15"/><rect class="cls-1" x="275.47" y="86.43" width="3.62" height="125.15"/><rect class="cls-1" x="314.56" y="86.43" width="3.62" height="125.15"/><rect class="cls-1" x="353.65" y="86.43" width="3.62" height="125.15"/><path class="cls-5" d="M423,386.74h-6.17V237.2a22.61,22.61,0,0,0-22.59-22.58H104.77A22.61,22.61,0,0,0,82.18,237.2V386.74H76V237.2a28.79,28.79,0,0,1,28.76-28.75H394.25A28.79,28.79,0,0,1,423,237.2Z" transform="translate(-32.6 -125.1)"/><rect class="cls-5" x="46.49" y="208.5" width="340.83" height="6.17"/><rect class="cls-5" x="362.61" y="258.55" width="50.06" height="6.17"/><rect class="cls-1" x="397.15" y="258.55" width="18.79" height="6.17"/><rect class="cls-5" x="156.31" y="102.04" width="118.42" height="73"/><rect class="cls-5" x="165.34" y="107.61" width="100.36" height="61.87"/><path class="cls-6" d="M214.19,237.94a14.76,14.76,0,0,1,2-.47,13.38,13.38,0,0,1,2.07-.18,9.93,9.93,0,0,1,2.06.21,5.66,5.66,0,0,1,1.79.69,3.63,3.63,0,0,1,1.25,1.33,4.21,4.21,0,0,1,.46,2.08v12.34H228a8.37,8.37,0,0,1,.56,1.35,5.64,5.64,0,0,1,.28,1.76,3.34,3.34,0,0,1-.79,2.5,2.78,2.78,0,0,1-2,.74h-2.18v5.48l-1.53.25a12.25,12.25,0,0,1-1.95.17,16,16,0,0,1-1.81-.1,3.08,3.08,0,0,1-1.32-.44,2.22,2.22,0,0,1-.81-1,4.75,4.75,0,0,1-.28-1.77v-2.6H204.5a5.08,5.08,0,0,1-1.83-1.64,4.55,4.55,0,0,1-.77-2.67,9,9,0,0,1,.24-1.95,4.91,4.91,0,0,1,.78-1.85Zm2.37,7.28h-.14l-6.17,8.72h6.31Z" transform="translate(-32.6 -125.1)"/><path class="cls-6" d="M260.62,251.71a20.33,20.33,0,0,1-.92,6.36,13.42,13.42,0,0,1-2.58,4.66,10.82,10.82,0,0,1-3.94,2.85,13.3,13.3,0,0,1-10,0,10.82,10.82,0,0,1-3.94-2.85,13.06,13.06,0,0,1-2.55-4.66,20.34,20.34,0,0,1-.91-6.36,20.1,20.1,0,0,1,.91-6.33,13.14,13.14,0,0,1,2.55-4.64,10.82,10.82,0,0,1,3.94-2.85,12.74,12.74,0,0,1,5-1,12.62,12.62,0,0,1,5,1,10.82,10.82,0,0,1,3.94,2.85,13.51,13.51,0,0,1,2.58,4.64A20.09,20.09,0,0,1,260.62,251.71Zm-7.93,0a13.61,13.61,0,0,0-1.18-6.3,3.67,3.67,0,0,0-3.36-2.23,3.58,3.58,0,0,0-3.32,2.23,14.07,14.07,0,0,0-1.14,6.3,14.29,14.29,0,0,0,1.14,6.34,3.57,3.57,0,0,0,3.32,2.24,3.66,3.66,0,0,0,3.36-2.24A13.82,13.82,0,0,0,252.69,251.71Z" transform="translate(-32.6 -125.1)"/><path class="cls-6" d="M280.38,237.94a14.76,14.76,0,0,1,2-.47,13.26,13.26,0,0,1,2.06-.18,10.09,10.09,0,0,1,2.07.21,5.6,5.6,0,0,1,1.78.69,3.58,3.58,0,0,1,1.26,1.33,4.32,4.32,0,0,1,.46,2.08v12.34h4.13a8.46,8.46,0,0,1,.55,1.35,5.37,5.37,0,0,1,.28,1.76,3.3,3.3,0,0,1-.79,2.5,2.76,2.76,0,0,1-2,.74H290v5.48l-1.53.25a12.25,12.25,0,0,1-1.95.17,16,16,0,0,1-1.81-.1,3.08,3.08,0,0,1-1.32-.44,2.1,2.1,0,0,1-.81-1,4.55,4.55,0,0,1-.28-1.77v-2.6H270.69a5.08,5.08,0,0,1-1.83-1.64,4.55,4.55,0,0,1-.77-2.67,9.6,9.6,0,0,1,.23-1.95,5.08,5.08,0,0,1,.79-1.85Zm2.37,7.28h-.14l-6.17,8.72h6.31Z" transform="translate(-32.6 -125.1)"/><path class="cls-6" d="M224.94,290.37a9,9,0,0,1-2.79-.42,6.28,6.28,0,0,1-2.23-1.26,5.71,5.71,0,0,1-1.5-2.11,7.39,7.39,0,0,1-.55-3,6.9,6.9,0,0,1,.55-2.89,5.74,5.74,0,0,1,1.43-2,5.8,5.8,0,0,1,2-1.15,7.71,7.71,0,0,1,2.33-.36,7.13,7.13,0,0,1,2.46.4,6,6,0,0,1,1.9,1.12,5,5,0,0,1,1.25,1.7,5.18,5.18,0,0,1,.44,2.16,1.76,1.76,0,0,1-.48,1.33,2.4,2.4,0,0,1-1.35.58l-6.27.94a2.08,2.08,0,0,0,1.14,1.26,4.5,4.5,0,0,0,2,.42,7,7,0,0,0,2-.27,6.2,6.2,0,0,0,1.51-.62,2.23,2.23,0,0,1,.69.71,1.86,1.86,0,0,1-.79,2.67,5.54,5.54,0,0,1-1.83.58A11.88,11.88,0,0,1,224.94,290.37Zm-.72-10a2.62,2.62,0,0,0-1.05.2,2.09,2.09,0,0,0-.72.52,2.05,2.05,0,0,0-.42.71,2.86,2.86,0,0,0-.17.8l4.35-.71a1.91,1.91,0,0,0-.56-1A1.88,1.88,0,0,0,224.22,280.38Z" transform="translate(-32.6 -125.1)"/><path class="cls-6" d="M237.31,289.93a4.39,4.39,0,0,1-.8.16,8.26,8.26,0,0,1-1.13.07,6,6,0,0,1-1-.07,1.7,1.7,0,0,1-.75-.31,1.41,1.41,0,0,1-.47-.62,2.7,2.7,0,0,1-.17-1V280.5a2.11,2.11,0,0,1,.22-1,2.3,2.3,0,0,1,.62-.75,4.57,4.57,0,0,1,1-.6,11.85,11.85,0,0,1,1.28-.47,10.84,10.84,0,0,1,1.42-.31,9.14,9.14,0,0,1,1.48-.12,3.51,3.51,0,0,1,1.93.47,1.73,1.73,0,0,1,.71,1.54,2.37,2.37,0,0,1-.1.7,3.21,3.21,0,0,1-.26.62c-.35,0-.72,0-1.09.05s-.74.09-1.09.15-.69.14-1,.22a5,5,0,0,0-.8.27Z" transform="translate(-32.6 -125.1)"/><path class="cls-6" d="M248.14,289.93a4.59,4.59,0,0,1-.8.16,8.26,8.26,0,0,1-1.13.07,6.24,6.24,0,0,1-1-.07,1.71,1.71,0,0,1-.74-.31,1.43,1.43,0,0,1-.48-.62,2.72,2.72,0,0,1-.16-1V280.5a2.11,2.11,0,0,1,.22-1,2.3,2.3,0,0,1,.62-.75,4.48,4.48,0,0,1,1-.6,12.9,12.9,0,0,1,1.29-.47,10.5,10.5,0,0,1,1.42-.31,9.11,9.11,0,0,1,1.47-.12,3.46,3.46,0,0,1,1.93.47,1.71,1.71,0,0,1,.72,1.54,2.38,2.38,0,0,1-.11.7,2.68,2.68,0,0,1-.25.62c-.36,0-.72,0-1.09.05s-.74.09-1.1.15-.69.14-1,.22a5,5,0,0,0-.8.27Z" transform="translate(-32.6 -125.1)"/><path class="cls-6" d="M267.2,283.78a7.7,7.7,0,0,1-.48,2.81,5.74,5.74,0,0,1-1.36,2.07,5.59,5.59,0,0,1-2.1,1.27,8,8,0,0,1-2.72.44,7.84,7.84,0,0,1-2.72-.46,6,6,0,0,1-2.09-1.31,5.79,5.79,0,0,1-1.36-2.07,7.88,7.88,0,0,1,0-5.47,5.79,5.79,0,0,1,1.36-2.07,6,6,0,0,1,2.09-1.31,7.84,7.84,0,0,1,2.72-.45,7.36,7.36,0,0,1,2.72.47,5.83,5.83,0,0,1,3.46,3.39A7.27,7.27,0,0,1,267.2,283.78Zm-8.89,0a4.08,4.08,0,0,0,.59,2.38,2,2,0,0,0,1.67.83,1.87,1.87,0,0,0,1.64-.84,4.19,4.19,0,0,0,.57-2.37,4,4,0,0,0-.58-2.35,2.08,2.08,0,0,0-3.31,0A4,4,0,0,0,258.31,283.78Z" transform="translate(-32.6 -125.1)"/><path class="cls-6" d="M274.27,289.93a4.59,4.59,0,0,1-.8.16,8.36,8.36,0,0,1-1.13.07,6.16,6.16,0,0,1-1-.07,1.81,1.81,0,0,1-.75-.31,1.48,1.48,0,0,1-.47-.62,2.72,2.72,0,0,1-.16-1V280.5a2.23,2.23,0,0,1,.21-1,2.47,2.47,0,0,1,.63-.75,4.48,4.48,0,0,1,1-.6c.4-.17.83-.33,1.28-.47a11,11,0,0,1,1.43-.31,9.11,9.11,0,0,1,1.47-.12,3.49,3.49,0,0,1,1.93.47,1.71,1.71,0,0,1,.71,1.54,2.37,2.37,0,0,1-.1.7,3.21,3.21,0,0,1-.25.62c-.36,0-.72,0-1.09.05s-.74.09-1.1.15-.69.14-1,.22a5,5,0,0,0-.8.27Z" transform="translate(-32.6 -125.1)"/><polyline class="cls-7" points="386.7 149.01 404.55 149.01 404.55 165.07"/><polygon class="cls-8" points="104.91 195 103.38 188.95 103.14 188.95 94.92 188.95 94.68 188.95 93.15 195 73.75 261.6 76.34 261.6 121.72 261.6 124.31 261.6 104.91 195"/><polygon class="cls-9" points="104.91 195 103.38 188.95 103.14 188.95 99.03 188.95 92.84 261.6 121.72 261.6 124.31 261.6 104.91 195"/><rect class="cls-10" x="64" y="261.6" width="70.07" height="7.99"/><rect class="cls-11" x="99.03" y="261.6" width="35.03" height="7.99"/><polygon class="cls-10" points="104.91 195 103.38 188.95 103.14 188.95 94.92 188.95 94.68 188.95 93.15 195 89.92 206.11 108.14 206.11 104.91 195"/><polygon class="cls-10" points="117.46 238.09 80.6 238.09 73.75 261.6 76.34 261.6 121.72 261.6 124.31 261.6 117.46 238.09"/><polygon class="cls-10" points="111.16 216.46 86.9 216.46 83.62 227.74 114.44 227.74 111.16 216.46"/><polygon class="cls-11" points="117.46 238.09 94.84 238.09 92.84 261.6 121.72 261.6 124.31 261.6 117.46 238.09"/><polygon class="cls-11" points="95.72 227.74 114.44 227.74 111.16 216.46 96.69 216.46 95.72 227.74"/><polygon class="cls-11" points="108.14 206.11 104.91 195 103.38 188.95 103.14 188.95 99.03 188.95 97.57 206.11 108.14 206.11"/><polygon class="cls-12" points="81.57 249.84 92.84 201.41 95.72 201.41 88.65 249.84 81.57 249.84"/><polygon class="cls-8" points="222.31 270.6 228.47 271.66 228.56 271.44 231.9 263.92 231.99 263.7 227.08 259.85 174.05 215.13 173 217.5 154.62 258.99 153.57 261.35 222.31 270.6"/><polygon class="cls-9" points="222.31 270.6 228.47 271.66 228.56 271.44 230.23 267.68 166.32 232.58 154.62 258.99 153.57 261.35 222.31 270.6"/><rect class="cls-10" x="157.72" y="357.72" width="70.07" height="7.99" transform="translate(-248.64 266.29) rotate(-66.1)"/><rect class="cls-11" x="168.14" y="373.74" width="35.03" height="7.99" transform="translate(-267.51 269.33) rotate(-66.1)"/><polygon class="cls-10" points="222.31 270.6 228.47 271.66 228.56 271.44 231.9 263.92 231.99 263.7 227.08 259.85 218.23 252.39 210.85 269.06 222.31 270.6"/><polygon class="cls-10" points="177.84 264.62 192.77 230.92 174.05 215.13 173 217.5 154.62 258.99 153.57 261.35 177.84 264.62"/><polygon class="cls-10" points="200.17 267.62 209.99 245.45 201.01 237.87 188.52 266.05 200.17 267.62"/><polygon class="cls-11" points="177.84 264.62 187 243.94 166.32 232.58 154.62 258.99 153.57 261.35 177.84 264.62"/><polygon class="cls-11" points="196.1 248.94 188.52 266.05 200.17 267.62 206.03 254.39 196.1 248.94"/><polygon class="cls-11" points="210.85 269.06 222.31 270.6 228.47 271.66 228.56 271.44 230.23 267.68 215.13 259.39 210.85 269.06"/><polygon class="cls-12" points="181.63 227.05 221.35 256.97 220.18 259.61 178.76 233.51 181.63 227.05"/><path class="cls-13" d="M314,400.75a7.42,7.42,0,0,1-6.43-11.13l52.58-91.06a7.42,7.42,0,0,1,12.85,0l52.4,90.75a7.42,7.42,0,0,1-6.24,11.44Z" transform="translate(-32.6 -125.1)"/><path class="cls-4" d="M366.61,296a6.31,6.31,0,0,1,5.46,3.15l52.41,90.78a6.31,6.31,0,0,1-5.28,9.73H314a6.3,6.3,0,0,1-5.45-9.45l52.57-91.06a6.3,6.3,0,0,1,5.45-3.15m0-2.25a8.59,8.59,0,0,0-7.4,4.27l-52.57,91.07a8.54,8.54,0,0,0,7.4,12.81H419.19a8.55,8.55,0,0,0,7.21-13.14L374,298a8.57,8.57,0,0,0-7.4-4.27Z" transform="translate(-32.6 -125.1)"/><path class="cls-4" d="M409.45,386.36l-41.67-72.17a1.34,1.34,0,0,0-2.33,0l-41.67,72.17a1.35,1.35,0,0,0,1.17,2h83.33a1.35,1.35,0,0,0,1.17-2Z" transform="translate(-32.6 -125.1)"/><path class="cls-13" d="M360.55,370.86a5.66,5.66,0,1,1,1.61,4.26A5.93,5.93,0,0,1,360.55,370.86ZM372.17,339q0,1.46-.06,4.2c0,1.83-.13,3.81-.25,5.94s-.3,4.25-.51,6.38-.46,4-.76,5.53a3.67,3.67,0,0,1-.75.38,8.51,8.51,0,0,1-1.08.31,9,9,0,0,1-1.14.19,9.52,9.52,0,0,1-1,.06,7.44,7.44,0,0,1-3.06-.56,2.84,2.84,0,0,1-1.55-2.22,33.64,33.64,0,0,1-.53-4.42c-.15-2-.29-4.12-.41-6.44s-.23-4.61-.29-6.89-.09-4.21-.09-5.81a12.16,12.16,0,0,1,2.87-1.1,12.58,12.58,0,0,1,3.19-.41,6,6,0,0,1,4,1.2A4.51,4.51,0,0,1,372.17,339Z" transform="translate(-32.6 -125.1)"/><path class="cls-3" d="M426.4,388.73,374,298a8.57,8.57,0,0,0-7.4-4.27h0V401.87h52.58a8.55,8.55,0,0,0,7.21-13.14Z" transform="translate(-32.6 -125.1)"/><path class="cls-2" d="M299.51,151.35H229.56v-6a3.32,3.32,0,0,0-5.33-2.63L197.74,163.1a3.32,3.32,0,0,0,0,5.25l26.49,20.37a3.31,3.31,0,0,0,5.33-2.62v-6h69.95a3.32,3.32,0,0,0,3.32-3.31V154.67A3.32,3.32,0,0,0,299.51,151.35Z" transform="translate(-32.6 -125.1)"/><path class="cls-4" d="M297.25,147.45H227.3v-6a3.31,3.31,0,0,0-5.33-2.63l-26.49,20.37a3.33,3.33,0,0,0,0,5.26L222,184.82a3.3,3.3,0,0,0,3.48.35,3.32,3.32,0,0,0,1.85-3v-6h69.95a3.32,3.32,0,0,0,3.32-3.32v-22.1A3.32,3.32,0,0,0,297.25,147.45Z" transform="translate(-32.6 -125.1)"/><path class="cls-14" d="M225.9,166.53a1.52,1.52,0,0,1-.2.86,2.08,2.08,0,0,1-.66.54,3.67,3.67,0,0,1-.65.29,8.12,8.12,0,0,1-.86.24,9.12,9.12,0,0,1-1,.16,8.68,8.68,0,0,1-1,.06,8.53,8.53,0,0,1-2.52-.37,5.74,5.74,0,0,1-2-1.1,5.25,5.25,0,0,1-1.37-1.83,6.06,6.06,0,0,1-.5-2.56,6,6,0,0,1,.55-2.66,5.62,5.62,0,0,1,1.45-1.9,5.93,5.93,0,0,1,2.07-1.12,7.82,7.82,0,0,1,2.4-.38,5.81,5.81,0,0,1,2.8.57,1.7,1.7,0,0,1,1,1.48,1.37,1.37,0,0,1-.25.84,1.76,1.76,0,0,1-.56.56,8,8,0,0,0-1.16-.55,4.36,4.36,0,0,0-1.58-.27,3.39,3.39,0,0,0-2.48.9,3.26,3.26,0,0,0-.93,2.48,4.13,4.13,0,0,0,.25,1.48,2.9,2.9,0,0,0,.68,1,2.8,2.8,0,0,0,1,.6,3.64,3.64,0,0,0,1.2.2,3.11,3.11,0,0,0,.72-.08,1.72,1.72,0,0,0,.49-.17v-1.75h-2a3.4,3.4,0,0,1-.21-.54,2.34,2.34,0,0,1-.1-.71,1.33,1.33,0,0,1,.3-1,1.1,1.1,0,0,1,.8-.3h3.15a1.08,1.08,0,0,1,1.17,1.18Z" transform="translate(-32.6 -125.1)"/><path class="cls-14" d="M227.49,162.71a6.82,6.82,0,0,1,.45-2.57,5.43,5.43,0,0,1,1.25-1.88,5.32,5.32,0,0,1,1.87-1.14,7.1,7.1,0,0,1,4.64,0,5.41,5.41,0,0,1,1.87,1.14,5.19,5.19,0,0,1,1.26,1.88,6.81,6.81,0,0,1,.46,2.57,6.91,6.91,0,0,1-.45,2.58,5.07,5.07,0,0,1-3.11,3,6.9,6.9,0,0,1-2.35.39,6.63,6.63,0,0,1-2.35-.4,5.22,5.22,0,0,1-1.87-1.16,5.43,5.43,0,0,1-1.23-1.89A6.75,6.75,0,0,1,227.49,162.71Zm3.35,0a4,4,0,0,0,.69,2.54,2.47,2.47,0,0,0,3.71,0,5,5,0,0,0,0-5.06,2.25,2.25,0,0,0-1.85-.84,2.33,2.33,0,0,0-1.86.83A3.86,3.86,0,0,0,230.84,162.71Z" transform="translate(-32.6 -125.1)"/><path class="cls-14" d="M249.26,168.68l-.74,0c-.29,0-.59,0-.89-.08a8.87,8.87,0,0,1-.9-.14,3.76,3.76,0,0,1-.82-.23,1.38,1.38,0,0,1-1-1.36v-8.71a.78.78,0,0,1,.22-.6,1.43,1.43,0,0,1,.58-.35,6.63,6.63,0,0,1,1.59-.32,17.64,17.64,0,0,1,1.95-.11,7.05,7.05,0,0,1,3.68.8,2.74,2.74,0,0,1,1.28,2.48,2.26,2.26,0,0,1-.48,1.45,2.73,2.73,0,0,1-1.31.88,3.32,3.32,0,0,1,1.56,1,2.46,2.46,0,0,1,.63,1.73,3,3,0,0,1-1.38,2.73A7.25,7.25,0,0,1,249.26,168.68Zm-1.21-7.18h1.36a1.86,1.86,0,0,0,1.17-.3,1.08,1.08,0,0,0,.36-.88.94.94,0,0,0-.42-.8,2.17,2.17,0,0,0-1.26-.3l-.64,0a3.55,3.55,0,0,0-.57.06Zm0,4.55a3.41,3.41,0,0,0,.67.1l.78,0a2.26,2.26,0,0,0,1.24-.31,1,1,0,0,0,.5-1,1,1,0,0,0-.41-.88,2.43,2.43,0,0,0-1.25-.26h-1.53Z" transform="translate(-32.6 -125.1)"/><path class="cls-14" d="M258.83,157.42a3.59,3.59,0,0,1,1-.36,5.13,5.13,0,0,1,1.29-.17,4.68,4.68,0,0,1,1.65.27,1.43,1.43,0,0,1,.92.85c.23.65.47,1.4.73,2.26s.52,1.74.78,2.65.52,1.82.77,2.71.47,1.67.65,2.36a1.61,1.61,0,0,1-.67.42,3.33,3.33,0,0,1-1.06.16,3.28,3.28,0,0,1-.76-.08,1.35,1.35,0,0,1-.5-.22,1.07,1.07,0,0,1-.32-.4,3.16,3.16,0,0,1-.21-.55l-.34-1.29h-3.37c-.1.37-.2.76-.3,1.16s-.2.78-.3,1.15a4.41,4.41,0,0,1-.55.16,3.44,3.44,0,0,1-.7.07,2.45,2.45,0,0,1-1.41-.33,1.06,1.06,0,0,1-.45-.91,1.91,1.91,0,0,1,.07-.52c0-.17.11-.38.17-.61s.21-.75.36-1.25.33-1,.52-1.62.38-1.17.59-1.78l.6-1.72.51-1.45C258.62,158,258.74,157.64,258.83,157.42Zm2.23,2.4c-.17.52-.37,1.1-.58,1.74s-.42,1.29-.59,1.95h2.31c-.17-.67-.35-1.33-.53-2s-.35-1.22-.49-1.73Z" transform="translate(-32.6 -125.1)"/><path class="cls-14" d="M273.69,159.35a2.77,2.77,0,0,0-2.2.88,3.66,3.66,0,0,0-.77,2.48,3.44,3.44,0,0,0,.85,2.5,3,3,0,0,0,2.28.88,3.54,3.54,0,0,0,1.3-.21,9.41,9.41,0,0,0,1-.47,2,2,0,0,1,.49.63,1.87,1.87,0,0,1,.18.85,1.53,1.53,0,0,1-.85,1.29,4.92,4.92,0,0,1-2.58.53,7.46,7.46,0,0,1-2.35-.35,5.2,5.2,0,0,1-1.92-1.09,5.1,5.1,0,0,1-1.3-1.87,6.85,6.85,0,0,1-.47-2.69,6.76,6.76,0,0,1,.45-2.56,5.53,5.53,0,0,1,1.25-1.88,5.24,5.24,0,0,1,1.86-1.15,6.52,6.52,0,0,1,2.27-.39,5.3,5.3,0,0,1,2.66.55,1.66,1.66,0,0,1,.94,1.44,1.48,1.48,0,0,1-.24.84,2,2,0,0,1-.56.56,6.4,6.4,0,0,0-1-.54A3.31,3.31,0,0,0,273.69,159.35Z" transform="translate(-32.6 -125.1)"/><path class="cls-14" d="M281.85,164.18v4.12a4.56,4.56,0,0,1-.65.12c-.3,0-.59.05-.88.05a4.22,4.22,0,0,1-.75-.06,1.32,1.32,0,0,1-.55-.24,1,1,0,0,1-.34-.46,2.42,2.42,0,0,1-.11-.79v-9.84l.65-.1a5.24,5.24,0,0,1,.86-.07,3.45,3.45,0,0,1,.76.07,1.37,1.37,0,0,1,.55.23,1,1,0,0,1,.33.47,2.15,2.15,0,0,1,.11.78v3l3.88-4.45a2.82,2.82,0,0,1,1.82.47,1.45,1.45,0,0,1,.55,1.13,1.89,1.89,0,0,1-.24.92,4.93,4.93,0,0,1-.79,1l-2.33,2.33,1,1.09,1,1.09,1,1c.3.33.57.61.79.84a1.64,1.64,0,0,1-.55,1.27,1.84,1.84,0,0,1-.57.34,2.09,2.09,0,0,1-.67.11,2,2,0,0,1-1.25-.38,7.21,7.21,0,0,1-.93-.91Z" transform="translate(-32.6 -125.1)"/></svg>